<svg width="11" height="10" viewBox="0 0 11 10" fill="none" xmlns="http://www.w3.org/2000/svg">
<path d="M9.0607 3.97109L5.9357 7.09609C5.90667 7.12515 5.87221 7.1482 5.83427 7.16393C5.79633 7.17965 5.75567 7.18775 5.7146 7.18775C5.67353 7.18775 5.63287 7.17965 5.59493 7.16393C5.557 7.1482 5.52253 7.12515 5.49351 7.09609L2.36851 3.97109C2.32475 3.92739 2.29495 3.87168 2.28287 3.81103C2.2708 3.75038 2.27698 3.68751 2.30066 3.63038C2.32433 3.57325 2.36442 3.52442 2.41586 3.49009C2.46729 3.45575 2.52776 3.43745 2.5896 3.4375H8.8396C8.90144 3.43745 8.96191 3.45575 9.01335 3.49009C9.06478 3.52442 9.10487 3.57325 9.12855 3.63038C9.15222 3.68751 9.15841 3.75038 9.14633 3.81103C9.13425 3.87168 9.10445 3.92739 9.0607 3.97109Z" fill="#343330"/>
</svg>
