<svg width="29" height="28" viewBox="0 0 29 28" fill="none" xmlns="http://www.w3.org/2000/svg">
<path d="M26.4331 8.10906L23.6288 18.2022C23.4746 18.7535 23.1448 19.2396 22.6894 19.5866C22.2341 19.9336 21.678 20.1226 21.1055 20.125H10.2948C9.72066 20.1247 9.16232 19.9367 8.70497 19.5895C8.24762 19.2424 7.91636 18.7552 7.76172 18.2022L3.92484 4.375H1.96484C1.73278 4.375 1.51022 4.28281 1.34613 4.11872C1.18203 3.95462 1.08984 3.73206 1.08984 3.5C1.08984 3.26794 1.18203 3.04538 1.34613 2.88128C1.51022 2.71719 1.73278 2.625 1.96484 2.625H4.58984C4.78114 2.62496 4.96718 2.68762 5.11948 2.80338C5.27178 2.91913 5.38195 3.08161 5.43313 3.26594L6.47 7H25.5898C25.7247 6.99997 25.8578 7.03114 25.9787 7.09105C26.0995 7.15097 26.2049 7.23802 26.2865 7.3454C26.3682 7.45277 26.4239 7.57758 26.4493 7.71005C26.4748 7.84253 26.4692 7.97908 26.4331 8.10906ZM9.83984 21.875C9.49373 21.875 9.15538 21.9776 8.8676 22.1699C8.57981 22.3622 8.35551 22.6355 8.22305 22.9553C8.0906 23.2751 8.05595 23.6269 8.12347 23.9664C8.19099 24.3059 8.35767 24.6177 8.60241 24.8624C8.84715 25.1072 9.15897 25.2738 9.49844 25.3414C9.8379 25.4089 10.1898 25.3742 10.5095 25.2418C10.8293 25.1093 11.1026 24.885 11.2949 24.5972C11.4872 24.3095 11.5898 23.9711 11.5898 23.625C11.5898 23.1609 11.4055 22.7158 11.0773 22.3876C10.7491 22.0594 10.304 21.875 9.83984 21.875ZM21.2148 21.875C20.8687 21.875 20.5304 21.9776 20.2426 22.1699C19.9548 22.3622 19.7305 22.6355 19.5981 22.9553C19.4656 23.2751 19.4309 23.6269 19.4985 23.9664C19.566 24.3059 19.7327 24.6177 19.9774 24.8624C20.2222 25.1072 20.534 25.2738 20.8734 25.3414C21.2129 25.4089 21.5648 25.3742 21.8845 25.2418C22.2043 25.1093 22.4776 24.885 22.6699 24.5972C22.8622 24.3095 22.9648 23.9711 22.9648 23.625C22.9648 23.1609 22.7805 22.7158 22.4523 22.3876C22.1241 22.0594 21.679 21.875 21.2148 21.875Z" fill="#4D4D4D"/>
</svg>
