<svg width="25" height="24" viewBox="0 0 25 24" fill="none" xmlns="http://www.w3.org/2000/svg">
<path d="M3.71484 6C3.71484 5.80109 3.79386 5.61032 3.93451 5.46967C4.07517 5.32902 4.26593 5.25 4.46484 5.25H20.9648C21.1638 5.25 21.3545 5.32902 21.4952 5.46967C21.6358 5.61032 21.7148 5.80109 21.7148 6C21.7148 6.19891 21.6358 6.38968 21.4952 6.53033C21.3545 6.67098 21.1638 6.75 20.9648 6.75H4.46484C4.26593 6.75 4.07517 6.67098 3.93451 6.53033C3.79386 6.38968 3.71484 6.19891 3.71484 6ZM4.46484 12.75H11.2148C11.4138 12.75 11.6045 12.671 11.7452 12.5303C11.8858 12.3897 11.9648 12.1989 11.9648 12C11.9648 11.8011 11.8858 11.6103 11.7452 11.4697C11.6045 11.329 11.4138 11.25 11.2148 11.25H4.46484C4.26593 11.25 4.07517 11.329 3.93451 11.4697C3.79386 11.6103 3.71484 11.8011 3.71484 12C3.71484 12.1989 3.79386 12.3897 3.93451 12.5303C4.07517 12.671 4.26593 12.75 4.46484 12.75ZM12.7148 17.25H4.46484C4.26593 17.25 4.07517 17.329 3.93451 17.4697C3.79386 17.6103 3.71484 17.8011 3.71484 18C3.71484 18.1989 3.79386 18.3897 3.93451 18.5303C4.07517 18.671 4.26593 18.75 4.46484 18.75H12.7148C12.9138 18.75 13.1045 18.671 13.2452 18.5303C13.3858 18.3897 13.4648 18.1989 13.4648 18C13.4648 17.8011 13.3858 17.6103 13.2452 17.4697C13.1045 17.329 12.9138 17.25 12.7148 17.25ZM22.9955 18.5306C22.9258 18.6004 22.8431 18.6557 22.752 18.6934C22.661 18.7312 22.5634 18.7506 22.4648 18.7506C22.3663 18.7506 22.2687 18.7312 22.1776 18.6934C22.0866 18.6557 22.0039 18.6004 21.9342 18.5306L20.0273 16.6275C19.2519 17.1391 18.3141 17.3447 17.3957 17.2043C16.4773 17.064 15.6438 16.5877 15.0565 15.8679C14.4692 15.148 14.1701 14.2357 14.217 13.3079C14.2639 12.38 14.6536 11.5026 15.3106 10.8457C15.9675 10.1888 16.8449 9.7991 17.7727 9.75216C18.7006 9.70522 19.6128 10.0044 20.3327 10.5916C21.0526 11.1789 21.5288 12.0125 21.6692 12.9309C21.8095 13.8493 21.604 14.787 21.0923 15.5625L22.9955 17.4656C23.0658 17.5353 23.1216 17.6183 23.1596 17.7097C23.1977 17.8011 23.2173 17.8991 23.2173 17.9981C23.2173 18.0971 23.1977 18.1952 23.1596 18.2866C23.1216 18.378 23.0658 18.4609 22.9955 18.5306ZM17.9648 15.75C18.4099 15.75 18.8449 15.618 19.2149 15.3708C19.5849 15.1236 19.8733 14.7722 20.0436 14.361C20.2139 13.9499 20.2584 13.4975 20.1716 13.061C20.0848 12.6246 19.8705 12.2237 19.5558 11.909C19.2412 11.5943 18.8403 11.38 18.4038 11.2932C17.9673 11.2064 17.5149 11.251 17.1038 11.4213C16.6927 11.5916 16.3413 11.88 16.094 12.25C15.8468 12.62 15.7148 13.055 15.7148 13.5C15.7148 14.0967 15.9519 14.669 16.3739 15.091C16.7958 15.5129 17.3681 15.75 17.9648 15.75Z" fill="white"/>
</svg>
