<svg width="29" height="28" viewBox="0 0 29 28" fill="none" xmlns="http://www.w3.org/2000/svg">
<path d="M26.9648 11.1562C26.9648 18.8125 15.6128 25.0097 15.1294 25.2656C15.002 25.3342 14.8595 25.37 14.7148 25.37C14.5702 25.37 14.4277 25.3342 14.3003 25.2656C13.8169 25.0097 2.46484 18.8125 2.46484 11.1562C2.46687 9.35837 3.18197 7.63471 4.45326 6.36342C5.72456 5.09213 7.44822 4.37703 9.24609 4.375C11.5047 4.375 13.4822 5.34625 14.7148 6.98797C15.9475 5.34625 17.925 4.375 20.1836 4.375C21.9815 4.37703 23.7051 5.09213 24.9764 6.36342C26.2477 7.63471 26.9628 9.35837 26.9648 11.1562Z" fill="#4D4D4D"/>
</svg>
