<svg width="29" height="28" viewBox="0 0 29 28" fill="none" xmlns="http://www.w3.org/2000/svg">
<path d="M24.6798 7.23499L15.0548 1.96859C14.7977 1.82649 14.5087 1.75195 14.2148 1.75195C13.921 1.75195 13.632 1.82649 13.3748 1.96859L3.74984 7.23718C3.47497 7.38758 3.24552 7.60901 3.08545 7.87836C2.92538 8.14772 2.84055 8.4551 2.83984 8.76843V19.2291C2.84055 19.5424 2.92538 19.8498 3.08545 20.1191C3.24552 20.3885 3.47497 20.6099 3.74984 20.7603L13.3748 26.0289C13.632 26.171 13.921 26.2455 14.2148 26.2455C14.5087 26.2455 14.7977 26.171 15.0548 26.0289L24.6798 20.7603C24.9547 20.6099 25.1842 20.3885 25.3442 20.1191C25.5043 19.8498 25.5891 19.5424 25.5898 19.2291V8.76952C25.5897 8.45564 25.5052 8.14757 25.3451 7.87759C25.185 7.60761 24.9552 7.38566 24.6798 7.23499ZM14.2148 3.49984L23.0031 8.31234L19.7459 10.0941L10.9577 5.28156L14.2148 3.49984ZM14.2148 13.1248L5.42656 8.31234L9.13547 6.28124L17.9237 11.0937L14.2148 13.1248ZM23.8398 19.2334L15.0898 24.023V14.6375L18.5898 12.7223V16.6248C18.5898 16.8569 18.682 17.0795 18.8461 17.2436C19.0102 17.4076 19.2328 17.4998 19.4648 17.4998C19.6969 17.4998 19.9195 17.4076 20.0836 17.2436C20.2477 17.0795 20.3398 16.8569 20.3398 16.6248V11.7642L23.8398 9.84906V19.2291V19.2334Z" fill="#4D4D4D"/>
</svg>
