<svg width="29" height="28" viewBox="0 0 29 28" fill="none" xmlns="http://www.w3.org/2000/svg">
<path d="M19.5273 13.125C19.5273 14.0768 19.2451 15.0073 18.7163 15.7987C18.1875 16.5901 17.4359 17.2069 16.5565 17.5712C15.6771 17.9354 14.7095 18.0307 13.776 17.845C12.8424 17.6593 11.9849 17.201 11.3119 16.528C10.6389 15.8549 10.1805 14.9974 9.99482 14.0639C9.80913 13.1303 9.90443 12.1627 10.2687 11.2833C10.6329 10.404 11.2498 9.65236 12.0412 9.12355C12.8326 8.59475 13.763 8.3125 14.7148 8.3125C15.9908 8.31395 17.214 8.82144 18.1162 9.72365C19.0184 10.6259 19.5259 11.8491 19.5273 13.125ZM26.0898 14C26.0898 16.2498 25.4227 18.449 24.1728 20.3196C22.9229 22.1902 21.1464 23.6482 19.0679 24.5091C16.9894 25.3701 14.7022 25.5953 12.4957 25.1564C10.2892 24.7175 8.26233 23.6342 6.67151 22.0433C5.08069 20.4525 3.99732 18.4257 3.55842 16.2192C3.11951 14.0126 3.34477 11.7255 4.20572 9.64698C5.06667 7.56847 6.52463 5.79193 8.39524 4.54203C10.2658 3.29213 12.4651 2.625 14.7148 2.625C17.7307 2.62818 20.6221 3.82764 22.7547 5.96018C24.8872 8.09271 26.0867 10.9841 26.0898 14ZM24.3398 14C24.3384 12.7045 24.0758 11.4226 23.5676 10.2309C23.0594 9.03922 22.3161 7.96227 21.3821 7.06446C20.4482 6.16665 19.3428 5.4664 18.132 5.00561C16.9212 4.54482 15.6299 4.33295 14.3353 4.38266C9.18375 4.58172 5.07563 8.8725 5.08985 14.0273C5.09479 16.374 5.96028 18.6374 7.52235 20.3886C8.1585 19.4659 8.96658 18.6745 9.90235 18.0578C9.98213 18.0051 10.077 17.98 10.1724 17.9863C10.2678 17.9927 10.3585 18.0301 10.4306 18.0928C11.6197 19.1213 13.1394 19.6873 14.7116 19.6873C16.2838 19.6873 17.8034 19.1213 18.9925 18.0928C19.0646 18.0301 19.1553 17.9927 19.2508 17.9863C19.3462 17.98 19.441 18.0051 19.5208 18.0578C20.4577 18.6742 21.267 19.4656 21.9041 20.3886C23.4739 18.631 24.341 16.3566 24.3398 14Z" fill="#4D4D4D"/>
</svg>
