<svg width="25" height="24" viewBox="0 0 25 24" fill="none" xmlns="http://www.w3.org/2000/svg">
<path d="M20.2598 17.954C20.4711 18.1653 20.5898 18.452 20.5898 18.7509C20.5898 19.0497 20.4711 19.3364 20.2598 19.5477C20.0484 19.7591 19.7618 19.8778 19.4629 19.8778C19.164 19.8778 18.8774 19.7591 18.666 19.5477L12.7138 13.5937L6.75976 19.5459C6.54842 19.7572 6.26178 19.8759 5.96289 19.8759C5.664 19.8759 5.37736 19.7572 5.16601 19.5459C4.95467 19.3345 4.83594 19.0479 4.83594 18.749C4.83594 18.4501 4.95467 18.1635 5.16601 17.9521L11.1201 11.9999L5.16789 6.04586C4.95654 5.83451 4.83781 5.54787 4.83781 5.24898C4.83781 4.9501 4.95654 4.66345 5.16789 4.45211C5.37923 4.24076 5.66588 4.12203 5.96476 4.12203C6.26365 4.12203 6.55029 4.24076 6.76164 4.45211L12.7138 10.4062L18.6679 4.45117C18.8792 4.23983 19.1659 4.12109 19.4648 4.12109C19.7636 4.12109 20.0503 4.23983 20.2616 4.45117C20.473 4.66251 20.5917 4.94916 20.5917 5.24804C20.5917 5.54693 20.473 5.83358 20.2616 6.04492L14.3076 11.9999L20.2598 17.954Z" fill="white"/>
</svg>
