<svg width="16" height="16" viewBox="0 0 16 16" fill="none" xmlns="http://www.w3.org/2000/svg">
<g clip-path="url(#clip0_719_25125)">
<path d="M8.39174 13.5346C8.1505 13.3816 7.848 13.3816 7.60677 13.5347L3.90695 15.8825C3.33349 16.2464 2.62456 15.708 2.77694 15.0243L3.75782 10.6233C3.82154 10.3374 3.72915 10.0381 3.51768 9.84526L0.261011 6.87603C-0.243443 6.4161 0.0277431 5.54738 0.694269 5.48812L4.98608 5.10655C5.26556 5.0817 5.50903 4.89717 5.61884 4.62695L7.30316 0.482438C7.56458 -0.160813 8.43543 -0.160812 8.69684 0.482439L10.3812 4.62696C10.491 4.89717 10.7344 5.0817 11.0139 5.10655L15.3057 5.48812C15.9723 5.54738 16.2434 6.4161 15.739 6.87603L12.4823 9.84526C12.2709 10.0381 12.1785 10.3374 12.2422 10.6233L13.2231 15.0246C13.3755 15.7082 12.6667 16.2466 12.0932 15.8828L8.39174 13.5346Z" fill="#E6E6E6"/>
<mask id="mask0_719_25125" style="mask-type:alpha" maskUnits="userSpaceOnUse" x="0" y="0" width="16" height="16">
<path d="M8.39174 13.5346C8.1505 13.3816 7.848 13.3816 7.60677 13.5347L3.90695 15.8825C3.33349 16.2464 2.62456 15.708 2.77694 15.0243L3.75782 10.6233C3.82154 10.3374 3.72915 10.0381 3.51768 9.84526L0.261011 6.87603C-0.243443 6.4161 0.0277431 5.54738 0.694269 5.48812L4.98608 5.10655C5.26556 5.0817 5.50903 4.89717 5.61884 4.62695L7.30316 0.482438C7.56458 -0.160813 8.43543 -0.160812 8.69684 0.482439L10.3812 4.62696C10.491 4.89717 10.7344 5.0817 11.0139 5.10655L15.3057 5.48812C15.9723 5.54738 16.2434 6.4161 15.739 6.87603L12.4823 9.84526C12.2709 10.0381 12.1785 10.3374 12.2422 10.6233L13.2231 15.0246C13.3755 15.7082 12.6667 16.2466 12.0932 15.8828L8.39174 13.5346Z" fill="#E0E8F1"/>
</mask>
<g mask="url(#mask0_719_25125)">
<rect width="8" height="16" fill="#FFA800"/>
</g>
</g>
<defs>
<clipPath id="clip0_719_25125">
<rect width="16" height="16" fill="white"/>
</clipPath>
</defs>
</svg>
