<svg width="17" height="16" viewBox="0 0 17 16" fill="none" xmlns="http://www.w3.org/2000/svg">
<path d="M14.5 3.5V7C14.5 10.295 12.905 12.2919 11.5669 13.3869C10.1256 14.5656 8.69188 14.9663 8.62938 14.9825C8.54344 15.0059 8.45281 15.0059 8.36688 14.9825C8.30438 14.9663 6.8725 14.5656 5.42938 13.3869C4.095 12.2919 2.5 10.295 2.5 7V3.5C2.5 3.23478 2.60536 2.98043 2.79289 2.79289C2.98043 2.60536 3.23478 2.5 3.5 2.5H13.5C13.7652 2.5 14.0196 2.60536 14.2071 2.79289C14.3946 2.98043 14.5 3.23478 14.5 3.5Z" fill="#0C66E4"/>
</svg>
