<svg width="24" height="24" viewBox="0 0 24 24" fill="none" xmlns="http://www.w3.org/2000/svg">
<path d="M11.8832 7.66297L10.2798 15.4368H8.34041L9.94398 7.66297H11.8832ZM20.0422 12.6826L21.063 9.7634L21.6504 12.6826H20.0422ZM22.2067 15.4368H24L22.4334 7.66297H20.7792C20.4064 7.66297 20.0921 7.88712 19.953 8.2328L17.0431 15.4368H19.0799L19.4842 14.2758H21.9719L22.2067 15.4368ZM17.1441 12.8989C17.1526 10.8473 14.4092 10.7336 14.4276 9.81691C14.4335 9.53838 14.6898 9.24166 15.2499 9.16578C15.5276 9.12871 16.2939 9.09864 17.1625 9.51372L17.5022 7.86457C17.0357 7.68955 16.4353 7.521 15.6883 7.521C13.7711 7.521 12.4224 8.57707 12.4116 10.0905C12.3993 11.2097 13.375 11.8338 14.1086 12.2065C14.865 12.5875 15.1184 12.8318 15.1147 13.1722C15.1094 13.6938 14.5116 13.9248 13.9549 13.9335C12.9793 13.9492 12.4138 13.66 11.9632 13.4422L11.6111 15.1464C12.065 15.3618 12.9013 15.5493 13.7672 15.5589C15.8054 15.5589 17.1381 14.5152 17.1441 12.8989ZM9.1121 7.66297L5.96986 15.4368H3.92017L2.37375 9.23274C2.28001 8.85123 2.19823 8.711 1.91313 8.54979C1.44678 8.28717 0.676937 8.04151 0 7.8887L0.0458603 7.66297H3.34574C3.76606 7.66297 4.14424 7.95304 4.24051 8.4552L5.05739 12.954L7.07471 7.66297H9.1121Z" fill="#1434CB"/>
</svg>
