<svg width="88" height="88" viewBox="0 0 88 88" fill="none" xmlns="http://www.w3.org/2000/svg">
<path d="M44 8.25C36.9293 8.25 30.0174 10.3467 24.1384 14.275C18.2593 18.2032 13.6772 23.7866 10.9713 30.3191C8.26549 36.8515 7.55752 44.0397 8.93694 50.9745C10.3164 57.9093 13.7212 64.2793 18.7209 69.2791C23.7207 74.2788 30.0907 77.6836 37.0255 79.0631C43.9604 80.4425 51.1485 79.7345 57.6809 77.0287C64.2134 74.3229 69.7968 69.7407 73.7251 63.8616C77.6533 57.9826 79.75 51.0707 79.75 44C79.74 34.5216 75.9703 25.4342 69.268 18.732C62.5658 12.0297 53.4784 8.26001 44 8.25ZM59.6956 37.6956L40.4456 56.9456C40.1902 57.2013 39.8869 57.4041 39.5531 57.5425C39.2193 57.6809 38.8614 57.7522 38.5 57.7522C38.1386 57.7522 37.7808 57.6809 37.4469 57.5425C37.1131 57.4041 36.8098 57.2013 36.5544 56.9456L28.3044 48.6956C27.7884 48.1796 27.4985 47.4798 27.4985 46.75C27.4985 46.0202 27.7884 45.3204 28.3044 44.8044C28.8204 44.2884 29.5203 43.9985 30.25 43.9985C30.9798 43.9985 31.6796 44.2884 32.1956 44.8044L38.5 51.1122L55.8044 33.8044C56.0599 33.5489 56.3632 33.3462 56.6971 33.2079C57.0309 33.0696 57.3887 32.9985 57.75 32.9985C58.1114 32.9985 58.4692 33.0696 58.803 33.2079C59.1368 33.3462 59.4401 33.5489 59.6956 33.8044C59.9511 34.0599 60.1538 34.3632 60.2921 34.697C60.4304 35.0309 60.5015 35.3887 60.5015 35.75C60.5015 36.1113 60.4304 36.4691 60.2921 36.803C60.1538 37.1368 59.9511 37.4401 59.6956 37.6956Z" fill="#0FB36F"/>
</svg>
