<svg width="40" height="33" viewBox="0 0 40 33" fill="none" xmlns="http://www.w3.org/2000/svg">
<g clip-path="url(#clip0_1460_65916)">
<path d="M41.7203 28.2124C36.0268 28.2124 30.3219 28.2124 24.6283 28.2124C23.8738 28.2124 23.8395 28.2124 23.9424 27.4564C24.4911 23.1147 22.0102 19.6207 18.7862 18.0857C13.6071 15.6342 7.18191 18.9907 6.25586 24.6497C6.0958 25.6349 6.0615 26.6201 6.23299 27.6167C6.31302 28.1093 6.16229 28.327 5.64768 28.327C4.85772 28.327 4.07023 28.327 3.3062 28.327C1.51125 28.2926 0.0821557 26.9638 0.0478573 25.1538C-0.00930657 22.141 -0.100768 19.1281 0.367976 16.1268C0.413707 15.8404 0.493737 15.5655 0.550901 15.2905C1.16827 12.6786 2.87175 11.2009 5.42126 10.525C7.29624 10.0209 9.18265 9.56272 11.0576 9.0243C12.864 8.49734 14.4303 7.56944 15.9509 6.49261C17.5057 5.39288 19.0263 4.2244 20.684 3.2965C23.2793 1.85309 26.0917 1.0512 29.0071 0.558609C33.6259 -0.231828 38.2333 0.0545619 42.8293 0.730443C46.4535 1.26886 49.9862 2.19676 53.4161 3.51416C57.1317 4.94611 60.4244 7.09976 63.5913 9.48253C63.8085 9.64291 63.9914 9.83765 64.1858 10.0095C64.7917 10.5594 65.4777 10.9145 66.3123 11.0176C69.6392 11.4185 72.9433 12.0142 76.1902 12.839C77.8708 13.2629 79.4828 13.8815 81.0034 14.7636C82.5125 15.6456 83.3242 16.9859 83.7358 18.6126C84.3303 20.9954 84.3303 23.4125 84.0788 25.8411C84.0674 25.9557 84.0331 26.0702 84.0102 26.1733C83.5643 28.0864 83.4043 28.2124 81.4607 28.2124C80.2603 28.2124 79.0598 28.2124 77.8594 28.2124C77.1963 28.2124 77.162 28.1666 77.242 27.5366C77.8594 22.8741 75.0126 18.6699 70.4509 17.5473C65.2833 16.2757 60.0585 19.9759 59.5098 25.2798C59.4297 26.0244 59.4069 26.7576 59.5212 27.5022C59.6241 28.1666 59.5784 28.201 58.881 28.201C53.1646 28.201 47.4482 28.201 41.7318 28.201C41.7203 28.201 41.7203 28.2124 41.7203 28.2124ZM58.4351 11.2811C58.7438 11.2811 59.1439 11.4529 59.304 11.0634C59.464 10.6739 59.0181 10.5479 58.8238 10.3073C58.8009 10.273 58.7666 10.2501 58.7438 10.2271C56.6401 8.41716 54.2392 7.12267 51.6897 6.0573C48.2142 4.61389 44.59 3.812 40.84 3.5027C40.1769 3.44542 40.0054 3.58289 40.0969 4.27023C40.337 6.1604 40.6228 8.05058 40.8515 9.94075C40.92 10.4677 41.1487 10.651 41.6632 10.6625C43.2066 10.7083 44.7386 10.7999 46.282 10.8572C50.3407 11.0061 54.3879 11.1436 58.4351 11.2811ZM34.9521 3.47979C34.6663 3.47979 34.3805 3.46833 34.0947 3.47979C33.8089 3.49124 33.523 3.53707 33.2372 3.55998C27.8067 4.05257 22.8334 5.66781 18.8433 9.60854C18.8433 9.60854 18.4767 9.94141 18.5347 10.1011C18.6261 10.3532 18.8776 10.2959 19.0834 10.2959C21.2557 10.3302 23.4279 10.3761 25.6001 10.3875C29.1443 10.4104 32.449 10.3875 35.9932 10.4677C36.8506 10.4906 37.0679 10.6052 36.9192 9.42525C36.9192 7.97474 36.6213 6.53817 36.6213 4.99193C36.3927 3.20485 36.7357 3.46833 34.9521 3.47979Z" fill="black"/>
<g clip-path="url(#clip1_1460_65916)">
<path fill-rule="evenodd" clip-rule="evenodd" d="M17.638 26.108C17.6346 25.9426 17.7205 25.7826 17.873 25.7187L20.6308 24.5628C20.8136 24.4861 20.8998 24.2759 20.8233 24.093L20.5706 23.4886C20.494 23.3055 20.2834 23.2192 20.1004 23.2959L17.3394 24.4532C17.1867 24.5172 17.0123 24.4659 16.896 24.348C16.8825 24.3344 16.8689 24.3209 16.8551 24.3077C16.7364 24.1939 16.6846 24.0213 16.7468 23.869L17.8793 21.0953C17.9542 20.9117 17.8662 20.7021 17.6827 20.6271L17.0758 20.3791C16.8923 20.3041 16.6828 20.392 16.6076 20.5754L15.4686 23.3555C15.4081 23.5032 15.2573 23.5907 15.0977 23.5903C15.0718 23.5903 15.0458 23.5906 15.0198 23.5913C14.8563 23.5959 14.6991 23.5093 14.6359 23.3585L13.4767 20.5928C13.4 20.41 13.1898 20.3238 13.0069 20.4003L12.4081 20.6507C12.225 20.7272 12.1387 20.9378 12.2155 21.1208L13.3751 23.8875C13.4391 24.0402 13.3882 24.2149 13.2691 24.33C13.2529 24.3457 13.237 24.3616 13.2213 24.3777C13.1086 24.4933 12.939 24.5417 12.7896 24.4807L10.015 23.3479C9.83172 23.273 9.62244 23.3606 9.54711 23.5437L9.29891 24.147C9.22336 24.3306 9.31115 24.5407 9.49489 24.616L12.2742 25.7546C12.4219 25.8151 12.5093 25.9659 12.5083 26.1255C12.5082 26.15 12.5084 26.1746 12.509 26.1992C12.5128 26.3627 12.4263 26.5199 12.2755 26.5831L9.50976 27.7424C9.32694 27.819 9.24078 28.0292 9.31725 28.2121L9.56762 28.8109C9.64418 28.994 9.85475 29.0803 10.0378 29.0035L12.802 27.8449C12.9513 27.7823 13.1219 27.8294 13.2347 27.9455C13.2526 27.9639 13.2707 27.982 13.2892 27.9998C13.4077 28.1141 13.4589 28.2876 13.3964 28.44L12.2611 31.2089C12.1859 31.3922 12.2734 31.6019 12.4567 31.6773L13.059 31.9251C13.2428 32.0007 13.4531 31.9127 13.5282 31.7287L14.6613 28.9536C14.723 28.8025 14.879 28.7151 15.0422 28.7168C15.0642 28.717 15.0862 28.7169 15.1083 28.7165C15.2727 28.7134 15.4314 28.7995 15.495 28.9512L16.6534 31.715C16.73 31.8978 16.9403 31.984 17.1232 31.9075L17.7276 31.6548C17.9107 31.5782 17.997 31.3677 17.9202 31.1846L16.7616 28.4204C16.699 28.2711 16.746 28.1003 16.862 27.9874C16.8807 27.9692 16.8992 27.9507 16.9173 27.9319C17.029 27.8164 17.1983 27.7692 17.347 27.8301L20.1244 28.968C20.308 29.0432 20.5179 28.9553 20.593 28.7715L20.8407 28.1654C20.9158 27.9818 20.8277 27.7721 20.6441 27.6971L17.8745 26.5653C17.7229 26.5033 17.6358 26.3466 17.6382 26.1828C17.6386 26.1579 17.6385 26.1329 17.638 26.108ZM16.2605 27.2255C16.228 27.2671 16.189 27.3048 16.1482 27.3383C16.018 27.4634 15.8615 27.5613 15.6877 27.6333C15.5139 27.7053 15.3327 27.7472 15.1553 27.7545C15.1028 27.7597 15.0471 27.7612 14.9962 27.7542C14.6265 27.7368 14.2692 27.5935 13.9949 27.3429C13.9533 27.3105 13.9174 27.2757 13.8839 27.2349C13.763 27.1029 13.6585 26.9426 13.5848 26.7646C13.5146 26.595 13.4749 26.4194 13.4671 26.2406C13.4619 26.1881 13.4609 26.1338 13.4674 26.0815C13.4848 25.7118 13.6281 25.3544 13.8787 25.0802C13.9111 25.0386 13.9459 25.0027 13.9824 24.971C14.1169 24.8441 14.2767 24.7382 14.4603 24.6621C14.6341 24.5901 14.8097 24.5505 14.9886 24.5426C15.0368 24.5392 15.0868 24.54 15.1392 24.5465C15.5128 24.5572 15.8705 24.7054 16.1447 24.956C16.1863 24.9884 16.2222 25.0232 16.2599 25.0622C16.3826 25.1985 16.4853 25.3545 16.5591 25.5326C16.6328 25.7106 16.6705 25.8936 16.6784 26.0725C16.6836 26.1249 16.6828 26.1749 16.6788 26.2213C16.6604 26.5964 16.5096 26.9518 16.2605 27.2255Z" fill="#0C66E4"/>
</g>
</g>
<defs>
<clipPath id="clip0_1460_65916">
<rect width="39.9824" height="32.2307" fill="white"/>
</clipPath>
<clipPath id="clip1_1460_65916">
<rect width="13.9531" height="13.9531" fill="white" transform="translate(8.09344 19.1753)"/>
</clipPath>
</defs>
</svg>
