<svg width="28" height="28" viewBox="0 0 28 28" fill="none" xmlns="http://www.w3.org/2000/svg">
<path d="M19.2498 17.4996C18.6661 17.4994 18.0883 17.6163 17.5506 17.8435C17.0129 18.0706 16.5263 18.4033 16.1195 18.8219L11.0773 15.5812C11.4739 14.5641 11.4739 13.4351 11.0773 12.418L16.1195 9.17725C16.8768 9.95307 17.8953 10.42 18.9774 10.4876C20.0595 10.5552 21.1281 10.2185 21.9761 9.54295C22.8241 8.86737 23.3911 7.90098 23.567 6.83115C23.743 5.76131 23.5155 4.66425 22.9285 3.75266C22.3416 2.84107 21.437 2.17989 20.3903 1.89731C19.3436 1.61473 18.2292 1.73088 17.2632 2.22325C16.2973 2.71562 15.5485 3.54912 15.1622 4.56216C14.7759 5.57521 14.7795 6.69561 15.1723 7.70616L10.1301 10.9469C9.52291 10.3236 8.74364 9.89546 7.89188 9.71729C7.04012 9.53911 6.15458 9.61899 5.34846 9.94671C4.54233 10.2744 3.85225 10.8351 3.36642 11.557C2.88059 12.279 2.62109 13.1294 2.62109 13.9996C2.62109 14.8698 2.88059 15.7202 3.36642 16.4422C3.85225 17.1641 4.54233 17.7248 5.34846 18.0525C6.15458 18.3802 7.04012 18.4601 7.89188 18.2819C8.74364 18.1037 9.52291 17.6756 10.1301 17.0523L15.1723 20.293C14.8345 21.1642 14.7845 22.1207 15.0296 23.0224C15.2748 23.924 15.8022 24.7235 16.5345 25.3038C17.2669 25.884 18.1659 26.2146 19.0997 26.247C20.0335 26.2794 20.9532 26.0119 21.724 25.4838C22.4949 24.9557 23.0764 24.1947 23.3835 23.3122C23.6905 22.4297 23.7069 21.4721 23.4303 20.5796C23.1538 19.687 22.5987 18.9065 21.8464 18.3523C21.0941 17.7981 20.1842 17.4993 19.2498 17.4996ZM19.2498 3.4996C19.769 3.4996 20.2765 3.65355 20.7081 3.94199C21.1398 4.23043 21.4763 4.6404 21.675 5.12005C21.8736 5.59971 21.9256 6.12751 21.8243 6.63671C21.7231 7.14591 21.473 7.61364 21.1059 7.98075C20.7388 8.34787 20.2711 8.59787 19.7619 8.69916C19.2527 8.80045 18.7249 8.74846 18.2452 8.54978C17.7656 8.3511 17.3556 8.01465 17.0672 7.58297C16.7787 7.15129 16.6248 6.64377 16.6248 6.1246C16.6248 5.4284 16.9013 4.76073 17.3936 4.26844C17.8859 3.77616 18.5536 3.4996 19.2498 3.4996ZM6.99977 16.6246C6.4806 16.6246 5.97308 16.4706 5.5414 16.1822C5.10972 15.8938 4.77327 15.4838 4.57459 15.0041C4.37591 14.5245 4.32393 13.9967 4.42521 13.4875C4.5265 12.9783 4.77651 12.5106 5.14362 12.1434C5.51073 11.7763 5.97846 11.5263 6.48766 11.425C6.99686 11.3238 7.52466 11.3757 8.00432 11.5744C8.48397 11.7731 8.89394 12.1095 9.18238 12.5412C9.47082 12.9729 9.62477 13.4804 9.62477 13.9996C9.62477 14.6958 9.34821 15.3635 8.85593 15.8558C8.36365 16.348 7.69597 16.6246 6.99977 16.6246ZM19.2498 24.4996C18.7306 24.4996 18.2231 24.3456 17.7914 24.0572C17.3597 23.7688 17.0233 23.3588 16.8246 22.8791C16.6259 22.3995 16.5739 21.8717 16.6752 21.3625C16.7765 20.8533 17.0265 20.3856 17.3936 20.0184C17.7607 19.6513 18.2285 19.4013 18.7377 19.3C19.2469 19.1987 19.7747 19.2507 20.2543 19.4494C20.734 19.6481 21.1439 19.9845 21.4324 20.4162C21.7208 20.8479 21.8748 21.3554 21.8748 21.8746C21.8748 22.5708 21.5982 23.2385 21.1059 23.7308C20.6136 24.223 19.946 24.4996 19.2498 24.4996Z" fill="#808080"/>
</svg>
