<svg width="20" height="20" viewBox="0 0 20 20" fill="none" xmlns="http://www.w3.org/2000/svg">
<path d="M9.32784 13.5114C9.37521 13.6256 9.38765 13.7513 9.3636 13.8726C9.33954 13.9938 9.28006 14.1052 9.19268 14.1927L6.69268 16.6927C6.63463 16.7508 6.5657 16.7969 6.48983 16.8283C6.41396 16.8598 6.33263 16.876 6.25049 16.876C6.16836 16.876 6.08703 16.8598 6.01115 16.8283C5.93528 16.7969 5.86635 16.7508 5.8083 16.6927L3.3083 14.1927C3.2208 14.1053 3.16119 13.9939 3.13704 13.8726C3.11288 13.7513 3.12526 13.6255 3.1726 13.5112C3.21995 13.397 3.30013 13.2993 3.403 13.2307C3.50587 13.162 3.62681 13.1254 3.75049 13.1255H5.62549V3.75049C5.62549 3.58473 5.69134 3.42576 5.80855 3.30855C5.92576 3.19134 6.08473 3.12549 6.25049 3.12549C6.41625 3.12549 6.57522 3.19134 6.69243 3.30855C6.80964 3.42576 6.87549 3.58473 6.87549 3.75049V13.1255H8.75049C8.8741 13.1255 8.99493 13.1622 9.0977 13.2309C9.20047 13.2996 9.28055 13.3972 9.32784 13.5114ZM16.6927 5.8083L14.1927 3.3083C14.1346 3.25019 14.0657 3.20409 13.9898 3.17264C13.914 3.14119 13.8326 3.125 13.7505 3.125C13.6684 3.125 13.587 3.14119 13.5112 3.17264C13.4353 3.20409 13.3664 3.25019 13.3083 3.3083L10.8083 5.8083C10.7208 5.89571 10.6612 6.00712 10.637 6.12843C10.6129 6.24973 10.6253 6.37547 10.6726 6.48974C10.7199 6.604 10.8001 6.70165 10.903 6.77032C11.0059 6.83899 11.1268 6.87559 11.2505 6.87549H13.1255V16.2505C13.1255 16.4163 13.1913 16.5752 13.3085 16.6924C13.4258 16.8096 13.5847 16.8755 13.7505 16.8755C13.9163 16.8755 14.0752 16.8096 14.1924 16.6924C14.3096 16.5752 14.3755 16.4163 14.3755 16.2505V6.87549H16.2505C16.3742 6.87559 16.4951 6.83899 16.598 6.77032C16.7009 6.70165 16.781 6.604 16.8284 6.48974C16.8757 6.37547 16.8881 6.24973 16.8639 6.12843C16.8398 6.00712 16.7802 5.89571 16.6927 5.8083Z" fill="black"/>
</svg>
