<svg width="32" height="32" viewBox="0 0 32 32" fill="none" xmlns="http://www.w3.org/2000/svg">
<path d="M28.5012 15.9999C28.5012 16.3977 28.3431 16.7792 28.0618 17.0605C27.7805 17.3419 27.399 17.4999 27.0012 17.4999H8.62618L15.0662 23.9386C15.348 24.2204 15.5063 24.6026 15.5063 25.0011C15.5063 25.3997 15.348 25.7818 15.0662 26.0636C14.7844 26.3454 14.4022 26.5037 14.0037 26.5037C13.6052 26.5037 13.223 26.3454 12.9412 26.0636L3.94118 17.0636C3.80134 16.9243 3.69039 16.7587 3.61468 16.5764C3.53897 16.394 3.5 16.1986 3.5 16.0011C3.5 15.8037 3.53897 15.6082 3.61468 15.4259C3.69039 15.2436 3.80134 15.078 3.94118 14.9386L12.9412 5.93864C13.0807 5.79911 13.2464 5.68843 13.4287 5.61291C13.611 5.5374 13.8064 5.49854 14.0037 5.49854C14.201 5.49854 14.3964 5.5374 14.5787 5.61291C14.761 5.68843 14.9267 5.79911 15.0662 5.93864C15.2057 6.07817 15.3164 6.24381 15.3919 6.42612C15.4674 6.60842 15.5063 6.80381 15.5063 7.00114C15.5063 7.19846 15.4674 7.39385 15.3919 7.57616C15.3164 7.75846 15.2057 7.92411 15.0662 8.06364L8.62618 14.4999H27.0012C27.399 14.4999 27.7805 14.6579 28.0618 14.9392C28.3431 15.2205 28.5012 15.6021 28.5012 15.9999Z" fill="black"/>
</svg>
