<svg width="8" height="5" viewBox="0 0 8 5" fill="none" xmlns="http://www.w3.org/2000/svg">
<path d="M7.41367 4.36953C7.39003 4.42664 7.34999 4.47545 7.29861 4.5098C7.24722 4.54415 7.18681 4.56249 7.125 4.5625H0.875002C0.81316 4.56255 0.752693 4.54425 0.701258 4.50991C0.649822 4.47558 0.60973 4.42676 0.586057 4.36962C0.562385 4.31249 0.556196 4.24962 0.568274 4.18897C0.580352 4.12832 0.610155 4.07261 0.653908 4.02891L3.77891 0.903908C3.80793 0.874853 3.8424 0.851803 3.88033 0.836077C3.91827 0.820351 3.95893 0.812256 4 0.812256C4.04107 0.812256 4.08173 0.820351 4.11967 0.836077C4.15761 0.851803 4.19207 0.874853 4.2211 0.903908L7.3461 4.02891C7.38979 4.07264 7.41953 4.12834 7.43155 4.18897C7.44358 4.2496 7.43736 4.31244 7.41367 4.36953Z" fill="#343330"/>
</svg>
