<svg width="20" height="20" viewBox="0 0 20 20" fill="none" xmlns="http://www.w3.org/2000/svg">
<path d="M14.1922 10.4427L7.94219 16.6927C7.85478 16.7802 7.74337 16.8398 7.62207 16.8639C7.50076 16.8881 7.37502 16.8757 7.26076 16.8284C7.14649 16.781 7.04884 16.7009 6.98017 16.598C6.91151 16.4951 6.8749 16.3742 6.875 16.2505V3.75049C6.8749 3.62681 6.91151 3.50587 6.98017 3.403C7.04884 3.30013 7.14649 3.21995 7.26076 3.1726C7.37502 3.12526 7.50076 3.11288 7.62207 3.13704C7.74337 3.16119 7.85478 3.2208 7.94219 3.3083L14.1922 9.5583C14.2503 9.61635 14.2964 9.68528 14.3279 9.76115C14.3593 9.83703 14.3755 9.91836 14.3755 10.0005C14.3755 10.0826 14.3593 10.164 14.3279 10.2398C14.2964 10.3157 14.2503 10.3846 14.1922 10.4427Z" fill="black"/>
</svg>
