<svg width="20" height="20" viewBox="0 0 20 20" fill="none" xmlns="http://www.w3.org/2000/svg">
<path d="M16.8749 9.375C16.7021 9.37539 16.5297 9.38976 16.3592 9.41797L15.9045 8.23516C16.2228 8.16211 16.5483 8.12516 16.8749 8.125C17.0406 8.125 17.1996 8.05915 17.3168 7.94194C17.434 7.82473 17.4999 7.66576 17.4999 7.5C17.4999 7.33424 17.434 7.17527 17.3168 7.05806C17.1996 6.94085 17.0406 6.875 16.8749 6.875H15.3811L14.3334 4.15078C14.2881 4.0328 14.2081 3.93134 14.1039 3.85979C13.9997 3.78824 13.8762 3.74996 13.7499 3.75H11.2499C11.0841 3.75 10.9251 3.81585 10.8079 3.93306C10.6907 4.05027 10.6249 4.20924 10.6249 4.375C10.6249 4.54076 10.6907 4.69973 10.8079 4.81694C10.9251 4.93415 11.0841 5 11.2499 5H13.3209L14.042 6.875H11.8749C10.4295 6.875 9.25766 7.21172 8.48657 7.84844C8.30511 7.99482 8.08634 8.08753 7.85495 8.11611C7.62357 8.14469 7.38881 8.10799 7.17719 8.01016C6.35063 7.63437 1.45141 5.65703 1.41157 5.64609C1.25587 5.60033 1.08847 5.61692 0.944789 5.69236C0.801102 5.7678 0.692393 5.89616 0.641652 6.05031C0.590912 6.20446 0.60212 6.37231 0.672905 6.51834C0.743691 6.66437 0.868503 6.77715 1.02094 6.83281C1.02094 6.83281 5.35688 8.54688 6.2186 9.40625C6.88805 10.073 7.32218 10.9396 7.45532 11.875H6.18735C6.03247 11.1162 5.60136 10.442 4.97761 9.983C4.35386 9.52402 3.5819 9.31299 2.8114 9.39082C2.0409 9.46866 1.32674 9.82982 0.80739 10.4043C0.288038 10.9787 0.000488281 11.7256 0.000488281 12.5C0.000488281 13.2744 0.288038 14.0213 0.80739 14.5957C1.32674 15.1702 2.0409 15.5313 2.8114 15.6092C3.5819 15.687 4.35386 15.476 4.97761 15.017C5.60136 14.558 6.03247 13.8838 6.18735 13.125H10.2592C10.8013 13.1262 11.329 12.9507 11.7624 12.625C12.1957 12.2994 12.5111 11.8413 12.6608 11.3203C12.8167 10.7661 13.0804 10.2482 13.4369 9.79609C13.7934 9.34403 14.2356 8.96677 14.7381 8.68594L15.1928 9.86797C14.5594 10.2734 14.0934 10.8937 13.8804 11.6151C13.6674 12.3364 13.7217 13.1103 14.0333 13.7948C14.345 14.4793 14.893 15.0285 15.5769 15.3415C16.2608 15.6545 17.0346 15.7104 17.7564 15.4989C18.4781 15.2873 19.0994 14.8226 19.5061 14.1899C19.9128 13.5573 20.0777 12.7992 19.9706 12.0547C19.8634 11.3103 19.4914 10.6295 18.9227 10.1373C18.3541 9.64501 17.627 9.37437 16.8749 9.375ZM3.12485 13.125H4.89204C4.7446 13.542 4.45449 13.8935 4.07299 14.1173C3.69148 14.3411 3.24314 14.4228 2.8072 14.348C2.37127 14.2732 1.97581 14.0467 1.69072 13.7085C1.40563 13.3704 1.24927 12.9423 1.24927 12.5C1.24927 12.0577 1.40563 11.6296 1.69072 11.2915C1.97581 10.9533 2.37127 10.7268 2.8072 10.652C3.24314 10.5772 3.69148 10.6589 4.07299 10.8827C4.45449 11.1065 4.7446 11.458 4.89204 11.875H3.12485C2.95909 11.875 2.80012 11.9408 2.68291 12.0581C2.5657 12.1753 2.49985 12.3342 2.49985 12.5C2.49985 12.6658 2.5657 12.8247 2.68291 12.9419C2.80012 13.0592 2.95909 13.125 3.12485 13.125ZM16.8749 14.375C16.4919 14.3745 16.1182 14.2568 15.8041 14.0376C15.4901 13.8184 15.2506 13.5083 15.1181 13.149C14.9855 12.7897 14.9662 12.3984 15.0626 12.0277C15.1591 11.6571 15.3667 11.3249 15.6577 11.0758L16.2913 12.7242C16.3507 12.879 16.4692 13.0038 16.6207 13.0712C16.7722 13.1386 16.9443 13.1431 17.0991 13.0836C17.2538 13.0241 17.3787 12.9056 17.4461 12.7541C17.5135 12.6026 17.5179 12.4306 17.4584 12.2758L16.8241 10.625H16.8749C17.3721 10.625 17.849 10.8225 18.2007 11.1742C18.5523 11.5258 18.7499 12.0027 18.7499 12.5C18.7499 12.9973 18.5523 13.4742 18.2007 13.8258C17.849 14.1775 17.3721 14.375 16.8749 14.375Z" fill="black"/>
</svg>
