<svg width="20" height="20" viewBox="0 0 20 20" fill="none" xmlns="http://www.w3.org/2000/svg">
<path d="M19.0626 13.4375C19.0629 13.871 18.9504 14.2972 18.7362 14.6741C18.522 15.0511 18.2135 15.3658 17.8409 15.5875C17.4683 15.8092 17.0444 15.9301 16.611 15.9385C16.1775 15.9469 15.7493 15.8424 15.3684 15.6353C14.9875 15.4282 14.6671 15.1256 14.4384 14.7572C14.2098 14.3888 14.081 13.9673 14.0645 13.5341C14.048 13.1009 14.1444 12.6708 14.3443 12.2861C14.5443 11.9014 14.8408 11.5753 15.2048 11.3398L14.5017 9.23906L10.4814 14.1461C10.423 14.2174 10.3496 14.2748 10.2664 14.3144C10.1832 14.354 10.0923 14.3747 10.0001 14.375H5.75483C5.52698 14.9387 5.1015 15.4001 4.55804 15.6727C4.01458 15.9453 3.39038 16.0106 2.80229 15.8562C2.2142 15.7018 1.70252 15.3384 1.36302 14.834C1.02353 14.3296 0.879496 13.7188 0.957879 13.1158C1.03626 12.5129 1.33169 11.9592 1.78886 11.5583C2.24604 11.1575 2.83362 10.937 3.44164 10.9381C4.04965 10.9392 4.63642 11.1619 5.09211 11.5644C5.5478 11.967 5.84118 12.5218 5.91733 13.125H9.70405L14.0369 7.83672L12.6744 3.75H10.6251C10.4594 3.75 10.3004 3.68415 10.1832 3.56694C10.066 3.44973 10.0001 3.29076 10.0001 3.125C10.0001 2.95924 10.066 2.80027 10.1832 2.68306C10.3004 2.56585 10.4594 2.5 10.6251 2.5H13.1251C13.2563 2.49999 13.3842 2.54126 13.4906 2.61796C13.597 2.69465 13.6766 2.80289 13.7181 2.92734L16.3908 10.9438C16.447 10.9398 16.5048 10.9375 16.5626 10.9375C17.2257 10.9375 17.8616 11.2009 18.3304 11.6697C18.7993 12.1386 19.0626 12.7745 19.0626 13.4375Z" fill="black"/>
</svg>
