<svg width="20" height="20" viewBox="0 0 20 20" fill="none" xmlns="http://www.w3.org/2000/svg">
<path d="M6.25 13.4375C6.25 13.6229 6.19502 13.8042 6.092 13.9583C5.98899 14.1125 5.84257 14.2327 5.67127 14.3036C5.49996 14.3746 5.31146 14.3932 5.1296 14.357C4.94775 14.3208 4.7807 14.2315 4.64959 14.1004C4.51848 13.9693 4.42919 13.8023 4.39302 13.6204C4.35684 13.4385 4.37541 13.25 4.44636 13.0787C4.51732 12.9074 4.63748 12.761 4.79165 12.658C4.94583 12.555 5.12708 12.5 5.3125 12.5C5.56114 12.5 5.7996 12.5988 5.97541 12.7746C6.15123 12.9504 6.25 13.1889 6.25 13.4375ZM9.375 13.4375C9.375 14.241 9.13674 15.0264 8.69035 15.6945C8.24395 16.3626 7.60948 16.8833 6.86715 17.1908C6.12483 17.4982 5.308 17.5787 4.51995 17.4219C3.7319 17.2652 3.00803 16.8783 2.43988 16.3101C1.87173 15.742 1.48481 15.0181 1.32806 14.2301C1.17131 13.442 1.25176 12.6252 1.55924 11.8828C1.86672 11.1405 2.38742 10.506 3.0555 10.0597C3.72357 9.61326 4.50902 9.375 5.3125 9.375C6.38956 9.37624 7.42216 9.80465 8.18375 10.5662C8.94535 11.3278 9.37376 12.3604 9.375 13.4375ZM7.5 13.4375C7.5 13.0049 7.37171 12.5819 7.13134 12.2222C6.89098 11.8625 6.54934 11.5821 6.14962 11.4165C5.74991 11.2509 5.31008 11.2076 4.88574 11.292C4.46141 11.3764 4.07163 11.5848 3.76571 11.8907C3.45978 12.1966 3.25144 12.5864 3.16703 13.0107C3.08263 13.4351 3.12595 13.8749 3.29152 14.2746C3.45708 14.6743 3.73746 15.016 4.09719 15.2563C4.45692 15.4967 4.87986 15.625 5.3125 15.625C5.89266 15.625 6.44906 15.3945 6.8593 14.9843C7.26953 14.5741 7.5 14.0177 7.5 13.4375ZM19.375 14.6875C19.3738 15.4055 19.098 16.0958 18.6042 16.617C18.1103 17.1382 17.4359 17.4508 16.719 17.4908C16.0021 17.5307 15.2971 17.295 14.7485 16.8319C14.1998 16.3688 13.849 15.7134 13.768 15H11.25C11.0842 15 10.9253 14.9342 10.8081 14.8169C10.6908 14.6997 10.625 14.5408 10.625 14.375V13.4375C10.6236 12.029 10.0634 10.6786 9.06741 9.68259C8.07143 8.68662 6.72102 8.12645 5.3125 8.125H3.125C2.95924 8.125 2.80027 8.05915 2.68306 7.94194C2.56585 7.82473 2.5 7.66576 2.5 7.5C2.5 7.33424 2.56585 7.17527 2.68306 7.05806C2.80027 6.94085 2.95924 6.875 3.125 6.875H3.75V4.375H3.125C2.95924 4.375 2.80027 4.30915 2.68306 4.19194C2.56585 4.07473 2.5 3.91576 2.5 3.75C2.5 3.58424 2.56585 3.42527 2.68306 3.30806C2.80027 3.19085 2.95924 3.125 3.125 3.125H12.5C12.6658 3.125 12.8247 3.19085 12.9419 3.30806C13.0592 3.42527 13.125 3.58424 13.125 3.75C13.125 3.91576 13.0592 4.07473 12.9419 4.19194C12.8247 4.30915 12.6658 4.375 12.5 4.375H11.875V7.64687L13.75 8.15469V5.625C13.75 5.45924 13.8159 5.30027 13.9331 5.18306C14.0503 5.06585 14.2092 5 14.375 5C14.5408 5 14.6997 5.06585 14.8169 5.18306C14.9342 5.30027 15 5.45924 15 5.625V8.49297L17.843 9.26328L17.8594 9.26797C18.1181 9.34418 18.345 9.5026 18.5057 9.71926C18.6664 9.93591 18.7522 10.199 18.75 10.4688V12.9266C19.1541 13.4245 19.3747 14.0462 19.375 14.6875ZM17.8125 14.6875C17.8125 14.4403 17.7392 14.1986 17.6018 13.993C17.4645 13.7875 17.2693 13.6273 17.0409 13.5326C16.8124 13.438 16.5611 13.4133 16.3186 13.4615C16.0762 13.5097 15.8534 13.6288 15.6786 13.8036C15.5038 13.9784 15.3848 14.2012 15.3365 14.4436C15.2883 14.6861 15.313 14.9374 15.4077 15.1659C15.5023 15.3943 15.6625 15.5895 15.868 15.7268C16.0736 15.8642 16.3153 15.9375 16.5625 15.9375C16.894 15.9375 17.212 15.8058 17.4464 15.5714C17.6808 15.337 17.8125 15.019 17.8125 14.6875Z" fill="black"/>
</svg>
