<svg width="12" height="12" viewBox="0 0 12 12" fill="none" xmlns="http://www.w3.org/2000/svg">
<g clip-path="url(#clip0_461_10362)">
<path d="M6.29381 10.1173C6.11287 10.0029 5.886 10.0029 5.70508 10.1173L2.93021 11.8723C2.50012 12.1443 1.96842 11.7419 2.08271 11.2308L2.81837 7.94106C2.86616 7.72734 2.79686 7.50356 2.63826 7.35944L0.195758 5.13991C-0.182582 4.79611 0.0208074 4.14672 0.520702 4.10243L3.73956 3.8172C3.94917 3.79863 4.13177 3.66068 4.21413 3.4587L5.47737 0.360628C5.67343 -0.12021 6.32657 -0.120209 6.52263 0.360629L7.78587 3.4587C7.86823 3.66069 8.05083 3.79863 8.26044 3.8172L11.4793 4.10243C11.9792 4.14672 12.1826 4.79611 11.8042 5.13991L9.36174 7.35944C9.20314 7.50356 9.13384 7.72734 9.18163 7.94106L9.91735 11.231C10.0316 11.7421 9.5 12.1445 9.0699 11.8726L6.29381 10.1173Z" fill="#FFA800"/>
</g>
<defs>
<clipPath id="clip0_461_10362">
<rect width="12" height="12" fill="white"/>
</clipPath>
</defs>
</svg>
