<svg width="20" height="20" viewBox="0 0 20 20" fill="none" xmlns="http://www.w3.org/2000/svg">
<path d="M-5 0H25V20H-5V0Z" fill="#00ABC2"/>
<path d="M11.221 11.2398C12.5319 11.2398 13.5946 10.1748 13.5946 8.86089C13.5946 7.54703 12.5319 6.48193 11.221 6.48193C9.9101 6.48193 8.84741 7.54703 8.84741 8.86089C8.84741 10.1748 9.9101 11.2398 11.221 11.2398Z" fill="#FFEC2D"/>
<path d="M11.2186 6.15892C11.3597 6.15715 11.4126 6.06878 11.4126 5.96273C11.4126 5.82134 11.2186 5.14795 11.2186 5.14795C11.2186 5.14795 11.0247 5.82134 11.0247 5.96273C11.0247 6.06878 11.0776 6.15892 11.2186 6.15892Z" fill="#FFEC2D"/>
<path d="M13.9182 8.86141C13.92 9.0028 14.0081 9.05583 14.1139 9.05583C14.255 9.05583 14.9269 8.86141 14.9269 8.86141C14.9269 8.86141 14.255 8.66699 14.1139 8.66699C14.0081 8.66699 13.9182 8.72001 13.9182 8.86141Z" fill="#FFEC2D"/>
<path d="M11.2202 11.5637C11.0791 11.5655 11.0262 11.6539 11.0262 11.7599C11.0262 11.9013 11.2202 12.5747 11.2202 12.5747C11.2202 12.5747 11.4142 11.9013 11.4142 11.7599C11.4142 11.6539 11.3613 11.5637 11.2202 11.5637Z" fill="#FFEC2D"/>
<path d="M8.52418 8.86222C8.52242 8.72083 8.43425 8.66781 8.32844 8.66781C8.18737 8.66781 7.5155 8.86222 7.5155 8.86222C7.5155 8.86222 8.18737 9.05664 8.32844 9.05664C8.43425 9.05664 8.52418 9.00362 8.52418 8.86222Z" fill="#FFEC2D"/>
<path d="M12.2543 6.37102C12.3797 6.41971 12.4616 6.35603 12.5037 6.25697C12.5598 6.12489 12.6557 5.42664 12.6557 5.42664C12.6557 5.42664 12.2168 5.98646 12.1606 6.11854C12.1185 6.2176 12.1295 6.32068 12.2543 6.37102Z" fill="#FFEC2D"/>
<path d="M13.7231 9.90391C13.6667 10.0408 13.7255 10.1244 13.8221 10.1633C13.9509 10.2153 14.6441 10.2753 14.6441 10.2753C14.6441 10.2753 14.1103 9.84053 13.9815 9.78859C13.8849 9.74964 13.7811 9.76763 13.7231 9.90391Z" fill="#FFEC2D"/>
<path d="M10.2039 11.3536C10.0784 11.3049 9.99656 11.3686 9.95445 11.4676C9.89832 11.5997 9.80248 12.298 9.80248 12.298C9.80248 12.298 10.2414 11.7382 10.2975 11.6061C10.3396 11.507 10.3286 11.4039 10.2039 11.3536Z" fill="#FFEC2D"/>
<path d="M8.73137 7.8207C8.78773 7.68378 8.72896 7.60022 8.63236 7.56126C8.50355 7.50932 7.81042 7.44934 7.81042 7.44934C7.81042 7.44934 8.34415 7.88408 8.47295 7.93602C8.56955 7.97497 8.67341 7.95698 8.73137 7.8207Z" fill="#FFEC2D"/>
<path d="M13.1289 6.95146C13.2299 7.05019 13.3296 7.02519 13.4044 6.95021C13.5042 6.85023 13.8421 6.23659 13.8421 6.23659C13.8421 6.23659 13.2299 6.57528 13.1301 6.67526C13.0553 6.75025 13.0291 6.85148 13.1289 6.95146Z" fill="#FFEC2D"/>
<path d="M13.1286 10.7722C13.0301 10.8735 13.055 10.9734 13.1298 11.0484C13.2296 11.1484 13.8418 11.4871 13.8418 11.4871C13.8418 11.4871 13.5039 10.8735 13.4042 10.7735C13.3294 10.6985 13.2284 10.6722 13.1286 10.7722Z" fill="#FFEC2D"/>
<path d="M9.31485 10.7732C9.21385 10.6744 9.1141 10.6994 9.03928 10.7744C8.93953 10.8744 8.60161 11.488 8.60161 11.488C8.60161 11.488 9.21385 11.1493 9.31361 11.0493C9.38842 10.9744 9.41461 10.8731 9.31485 10.7732Z" fill="#FFEC2D"/>
<path d="M9.31147 6.95092C9.40997 6.84969 9.38504 6.74971 9.31022 6.67473C9.21047 6.57475 8.59822 6.23606 8.59822 6.23606C8.59822 6.23606 8.93614 6.84969 9.0359 6.94967C9.11071 7.02466 9.21171 7.0509 9.31147 6.95092Z" fill="#FFEC2D"/>
<path d="M13.7202 7.82046C13.7797 7.95608 13.882 7.97472 13.9786 7.93577C14.1074 7.88383 14.6411 7.4491 14.6411 7.4491C14.6411 7.4491 13.948 7.50908 13.8192 7.56102C13.7226 7.59997 13.6622 7.68418 13.7202 7.82046Z" fill="#FFEC2D"/>
<path d="M12.2429 11.3519C12.1188 11.4039 12.1072 11.5053 12.1493 11.6044C12.2054 11.7365 12.6443 12.2963 12.6443 12.2963C12.6443 12.2963 12.5484 11.598 12.4923 11.4659C12.4502 11.3669 12.3676 11.3016 12.2429 11.3519Z" fill="#FFEC2D"/>
<path d="M8.72699 9.90269C8.66742 9.76706 8.56518 9.74842 8.46857 9.78737C8.33977 9.83931 7.80604 10.274 7.80604 10.274C7.80604 10.274 8.49918 10.2141 8.62798 10.1621C8.72458 10.1232 8.78496 10.039 8.72699 9.90269Z" fill="#FFEC2D"/>
<path d="M10.1969 6.36881C10.321 6.31682 10.3327 6.21539 10.2906 6.11633C10.2344 5.98425 9.79554 5.42443 9.79554 5.42443C9.79554 5.42443 9.89138 6.12269 9.94752 6.25477C9.98962 6.35383 10.0722 6.41915 10.1969 6.36881Z" fill="#FFEC2D"/>
<path d="M11.736 6.21882C11.8663 6.24058 11.9343 6.16173 11.9575 6.05654C11.9884 5.91627 11.9571 5.21592 11.9571 5.21592C11.9571 5.21592 11.6313 5.85161 11.6004 5.99187C11.5772 6.09707 11.6062 6.19531 11.736 6.21882Z" fill="#FFEC2D"/>
<path d="M13.8777 9.40283C13.8469 9.54987 13.92 9.62027 14.0224 9.63872C14.1589 9.66332 14.8535 9.57871 14.8535 9.57871C14.8535 9.57871 14.2482 9.2598 14.1118 9.23521C14.0094 9.21676 13.9102 9.2561 13.8777 9.40283Z" fill="#FFEC2D"/>
<path d="M10.7066 11.5058C10.5764 11.484 10.5084 11.5629 10.4852 11.6681C10.4542 11.8083 10.4855 12.5087 10.4855 12.5087C10.4855 12.5087 10.8113 11.873 10.8422 11.7327C10.8654 11.6275 10.8364 11.5293 10.7066 11.5058Z" fill="#FFEC2D"/>
<path d="M8.57222 8.32226C8.60301 8.17522 8.5299 8.10483 8.42755 8.08638C8.29107 8.06178 7.59644 8.14639 7.59644 8.14639C7.59644 8.14639 8.20171 8.46529 8.33818 8.48989C8.44054 8.50834 8.53973 8.469 8.57222 8.32226Z" fill="#FFEC2D"/>
<path d="M12.7192 6.62278C12.8314 6.69518 12.9236 6.6483 12.9842 6.5588C13.065 6.43947 13.2969 5.76956 13.2969 5.76956C13.2969 5.76956 12.7592 6.23629 12.6784 6.35562C12.6178 6.44512 12.608 6.5489 12.7192 6.62278Z" fill="#FFEC2D"/>
<path d="M13.4745 10.373C13.3923 10.4973 13.4329 10.5913 13.5193 10.6486C13.6345 10.725 14.2984 10.9192 14.2984 10.9192C14.2984 10.9192 13.8647 10.3857 13.7495 10.3093C13.6631 10.252 13.5582 10.2496 13.4745 10.373Z" fill="#FFEC2D"/>
<path d="M9.7349 11.1013C9.62267 11.0289 9.53047 11.0758 9.46988 11.1653C9.38909 11.2847 9.15725 11.9546 9.15725 11.9546C9.15725 11.9546 9.69494 11.4878 9.77573 11.3685C9.83633 11.279 9.84612 11.1752 9.7349 11.1013Z" fill="#FFEC2D"/>
<path d="M8.9797 7.35019C9.06196 7.22586 9.02133 7.13184 8.93491 7.07455C8.81969 6.99815 8.15586 6.80398 8.15586 6.80398C8.15586 6.80398 8.58952 7.33746 8.70475 7.41385C8.79116 7.47114 8.89601 7.47358 8.9797 7.35019Z" fill="#FFEC2D"/>
<path d="M13.4619 7.36238C13.5412 7.47899 13.6439 7.47405 13.732 7.4152C13.8495 7.33673 14.3021 6.80134 14.3021 6.80134C14.3021 6.80134 13.6353 7.01334 13.5178 7.09181C13.4297 7.15066 13.384 7.24478 13.4619 7.36238Z" fill="#FFEC2D"/>
<path d="M12.7135 11.1097C12.5967 11.1896 12.6013 11.2926 12.6599 11.3808C12.738 11.4984 13.272 11.9507 13.272 11.9507C13.272 11.9507 13.062 11.2826 12.9839 11.165C12.9253 11.0768 12.8313 11.0312 12.7135 11.1097Z" fill="#FFEC2D"/>
<path d="M8.97735 10.3608C8.89798 10.2442 8.79533 10.2491 8.70719 10.3079C8.58968 10.3864 8.13715 10.9218 8.13715 10.9218C8.13715 10.9218 8.80391 10.7098 8.92142 10.6313C9.00955 10.5725 9.05525 10.4784 8.97735 10.3608Z" fill="#FFEC2D"/>
<path d="M9.72201 6.61247C9.83885 6.53252 9.83422 6.42958 9.77564 6.34136C9.69754 6.22374 9.16358 5.77148 9.16358 5.77148C9.16358 5.77148 9.37355 6.43957 9.45165 6.55719C9.51023 6.6454 9.6042 6.69096 9.72201 6.61247Z" fill="#FFEC2D"/>
<path d="M13.8672 8.33405C13.8962 8.47334 13.993 8.50875 14.0968 8.48842C14.2352 8.46131 14.8569 8.14022 14.8569 8.14022C14.8569 8.14022 14.1601 8.07735 14.0217 8.10446C13.9179 8.12479 13.8399 8.19443 13.8672 8.33405Z" fill="#FFEC2D"/>
<path d="M11.7465 11.5113C11.6083 11.54 11.5734 11.6369 11.5939 11.7411C11.6212 11.88 11.9419 12.5044 11.9419 12.5044C11.9419 12.5044 12.0022 11.8058 11.9749 11.6669C11.9544 11.5628 11.885 11.4843 11.7465 11.5113Z" fill="#FFEC2D"/>
<path d="M8.58007 9.38811C8.55102 9.24883 8.45427 9.21341 8.35045 9.23375C8.21203 9.26086 7.59037 9.58194 7.59037 9.58194C7.59037 9.58194 8.28715 9.64482 8.42557 9.61771C8.52939 9.59738 8.60739 9.52774 8.58007 9.38811Z" fill="#FFEC2D"/>
<path d="M10.7008 6.21088C10.839 6.18218 10.8739 6.08526 10.8534 5.98109C10.826 5.8422 10.5053 5.2178 10.5053 5.2178C10.5053 5.2178 10.445 5.91636 10.4724 6.05525C10.4929 6.15942 10.5623 6.23785 10.7008 6.21088Z" fill="#FFEC2D"/>
<path d="M11.1322 13.0148C11.0705 13.1262 11.0334 13.2552 10.9558 13.3559C10.716 13.1385 10.3704 13.1438 10.0671 13.1315C9.81666 13.1173 9.5451 13.0943 9.35112 12.9158C9.14832 12.7479 8.9808 12.5323 8.75508 12.3962C8.54296 12.3504 8.34361 12.2581 8.17139 12.1258C7.81517 11.8342 7.61062 11.4012 7.26146 11.1007C7.19621 11.0371 7.11686 10.9858 7.04279 10.931C6.97226 10.9487 7.004 11.1007 6.91759 11.0229C6.86998 10.9876 6.75183 10.9858 6.74125 11.0335C6.84705 11.1749 6.95462 11.334 6.97049 11.5143C6.89643 11.5213 6.7677 11.4984 6.73243 11.5249C6.82934 11.6706 6.95112 11.798 7.09217 11.9013C7.02516 11.9119 6.8929 11.9066 6.86645 11.9331C6.99848 12.0599 7.16148 12.1495 7.33905 12.193C7.37432 12.2424 7.28438 12.3379 7.36197 12.3803C7.40606 12.398 7.55419 12.4298 7.45191 12.4811C7.38137 12.527 7.40782 12.6384 7.49776 12.6348C7.55419 12.6649 7.68115 12.6702 7.69173 12.7232C7.64059 12.7727 7.48541 12.8328 7.61767 12.8823C7.74235 12.9531 7.88187 12.9937 8.02502 13.0007C7.95448 13.0608 7.86631 13.0943 7.79401 13.1509C8.12025 13.3436 8.48175 13.469 8.84149 13.5928C8.98256 13.6387 9.12893 13.6829 9.27705 13.7112C8.84678 13.6864 8.43061 13.5592 8.03913 13.3842C7.83634 13.2958 7.63354 13.2092 7.42546 13.1332C7.51539 13.0855 7.6212 13.0731 7.71642 13.0325C7.51892 12.9936 7.30554 12.9795 7.13449 12.8734C7.15918 12.8239 7.25793 12.8222 7.31436 12.7974C7.42017 12.7727 7.48365 12.7444 7.33728 12.7338C7.18916 12.6931 7.01987 12.7108 6.88761 12.6224C6.89643 12.5694 7.03398 12.5871 7.08864 12.5641C7.15918 12.5517 7.23677 12.5411 7.2932 12.4934C7.06395 12.3997 6.76417 12.4669 6.5843 12.2637C6.54374 12.1859 6.71303 12.2478 6.76064 12.2354C6.88408 12.2354 7.01634 12.2743 7.13449 12.2248C6.79944 12.0781 6.44146 11.942 6.18753 11.6698C6.15932 11.6256 6.07467 11.5054 6.14344 11.4913C6.34095 11.5178 6.48379 11.7334 6.69716 11.6998C6.72538 11.6627 6.57372 11.6009 6.53492 11.5461C6.21593 11.2892 5.93766 10.9853 5.70964 10.6447C5.69553 10.5263 5.87717 10.5086 5.92478 10.5987C6.16108 10.8285 6.37445 11.0936 6.66895 11.2492C6.77475 11.3004 6.60899 11.1891 6.58783 11.1484C6.30774 10.8372 6.06562 10.4937 5.86659 10.1251C5.83132 10.0579 5.77665 9.93596 5.87893 9.90061C5.97945 9.84935 6.08172 9.91828 6.13286 10.0067C6.33213 10.2594 6.48026 10.5599 6.7289 10.7702C6.51729 10.3584 6.28981 9.92182 6.28452 9.44815C6.28981 9.35624 6.2951 9.21838 6.4203 9.22015C6.52611 9.20424 6.50847 9.33857 6.54374 9.40219C6.64602 9.75214 6.69011 10.1304 6.89643 10.4379C6.85234 10.1799 6.78357 9.91298 6.82942 9.64963C6.84 9.56126 6.93522 9.53652 7.00047 9.58954C7.05161 9.71326 7.06219 9.87056 7.10804 10.0049C7.38287 10.9198 7.96153 11.7131 8.74803 12.2531C9.39202 12.6947 10.1435 12.9531 10.9223 13.0007C10.9929 13.0077 11.0634 13.0095 11.1322 13.013M13.5375 14.6232C13.4105 14.7009 13.3118 14.5631 13.206 14.5224C13.1284 14.5648 13.1213 14.7027 13.0508 14.7699C12.9661 14.8671 12.8603 14.7416 12.8692 14.6461C12.7669 14.7328 12.7157 14.9289 12.5517 14.9007C12.4724 14.837 12.4142 14.7027 12.3542 14.8565C12.3066 14.9307 12.1779 15.0367 12.1091 14.9236C12.088 14.8247 12.0386 14.708 11.9857 14.8653C11.9469 14.9784 11.827 15.0597 11.7141 15.0102C11.6506 14.959 11.7635 14.7681 11.6841 14.7805C11.5642 14.8618 11.4937 15.058 11.3262 15.0421C11.2609 14.9714 11.3667 14.8459 11.2944 14.7646C11.2115 14.8724 11.1181 15.0314 10.9717 15.0421C10.9012 14.9855 10.9752 14.8211 10.9294 14.7981C10.7813 14.8865 10.6226 15.0474 10.4356 14.9979C10.5079 14.7151 10.8148 14.6179 11.0705 14.5967C11.5131 14.5419 11.9786 14.6426 12.4054 14.4818C12.4741 14.4394 12.6399 14.381 12.5817 14.2838C12.5288 14.2061 12.7175 14.2361 12.7351 14.146C12.7246 14.0329 12.8233 14.0488 12.9185 14.0399C13.3488 14.0205 13.7738 14.1106 14.2023 14.1265C14.2341 14.3351 14.003 14.4818 13.8144 14.4181C13.7262 14.4323 13.5939 14.2131 13.6204 14.3722C13.6027 14.457 13.6133 14.5666 13.5375 14.6232ZM9.88015 14.1955C9.9789 14.2856 10.0494 14.1778 10.1429 14.1371C10.4481 14.0174 10.7349 13.8549 10.9946 13.6546C11.1569 13.5203 11.2979 13.3453 11.5166 13.3011C11.9434 13.1721 12.3966 13.188 12.8233 13.0678C13.1495 12.6224 13.7015 12.4616 14.1653 12.2053C14.2693 12.1735 14.3099 12.0869 14.3416 11.9932C14.518 11.7122 14.7596 11.4648 15.0452 11.2951C15.1801 11.2153 15.3389 11.1865 15.4931 11.2138C15.4719 11.3941 15.386 11.5605 15.2515 11.6822C15.3556 11.6804 15.4455 11.615 15.5478 11.6185C15.5831 11.8059 15.382 11.9031 15.2745 12.0198C15.3344 12.0339 15.5637 12.0516 15.4385 12.1117C15.2798 12.2212 15.0981 12.2972 14.9518 12.4263C15.0876 12.451 15.1034 12.4793 14.9659 12.5288C14.89 12.5783 14.7472 12.5959 14.7331 12.6949C14.8354 12.7585 14.6873 12.8186 14.6291 12.8398C14.5197 12.8663 14.4033 12.9141 14.5497 12.9989C14.495 13.082 14.3751 13.0996 14.2781 13.0908C14.3081 13.1863 14.3504 13.2923 14.2288 13.3347C13.9558 13.551 13.6289 13.6879 13.2836 13.7306C13.7156 13.7624 14.1617 13.6829 14.5303 13.4478C14.5797 13.3895 14.8354 13.3259 14.6925 13.2782C14.6255 13.2499 14.4809 13.2181 14.4703 13.1668C14.6714 13.0431 14.9236 13.0873 15.1387 13.0148C15.144 12.9441 14.9747 12.9636 14.9112 12.9477C14.7613 12.9353 14.7701 12.8964 14.9147 12.8823C15.0981 12.8328 15.3062 12.8239 15.4614 12.7055C15.3362 12.6454 15.1775 12.6967 15.0435 12.649C15.2709 12.55 15.539 12.5394 15.7435 12.3891C15.837 12.2849 15.6236 12.3184 15.5619 12.3202C15.4367 12.3432 15.3785 12.2813 15.5214 12.2301C15.7665 12.048 16.0751 11.9314 16.2479 11.6698C16.2884 11.6115 16.3431 11.4347 16.2126 11.4966C16.0433 11.5549 15.8934 11.7458 15.6977 11.6875C16.0821 11.3888 16.4454 11.0512 16.7081 10.6394C16.7222 10.5192 16.5353 10.5068 16.4877 10.6005C16.2408 10.8373 16.0186 11.1184 15.703 11.2686C16.0005 10.9704 16.2589 10.6355 16.4718 10.2718C16.5195 10.1657 16.6447 10.0367 16.5776 9.91828C16.4665 9.82638 16.329 9.91121 16.2726 10.019C16.0804 10.27 15.9358 10.5616 15.6906 10.7666C15.904 10.3548 16.128 9.91475 16.1315 9.44108C16.1315 9.3421 16.1139 9.19717 15.9798 9.21661C15.874 9.23429 15.9005 9.39336 15.8564 9.47289C15.7612 9.7981 15.7153 10.1498 15.5214 10.4326C15.5654 10.1693 15.6413 9.89354 15.5831 9.62842C15.5549 9.50824 15.3626 9.5595 15.3891 9.67791C15.1598 10.8426 14.3787 11.8607 13.3612 12.4492C12.8938 12.7144 12.3736 12.884 11.8411 12.9618C11.7 12.9918 11.5448 12.9742 11.409 13.0237C11.0775 13.2764 10.8782 13.7023 10.4603 13.8349C10.2716 13.9286 10.0283 13.948 9.89425 14.1212C9.88339 14.1444 9.87854 14.1699 9.88015 14.1955ZM10.7918 14.0134C10.7284 14.0169 10.6666 14.024 10.6049 14.0435C10.522 14.0558 10.4427 14.0841 10.3616 14.0965L10.3281 14.1035L10.2734 14.1089C10.2805 14.1385 10.2805 14.1694 10.2734 14.199C10.2677 14.2123 10.2593 14.2244 10.2487 14.2343C10.2381 14.2485 10.2258 14.2591 10.2099 14.2662C10.1956 14.2732 10.18 14.2774 10.1641 14.2785C10.1482 14.2785 10.1323 14.2785 10.1164 14.2715C10.1006 14.2662 10.0865 14.2573 10.0724 14.2449L10.023 14.2538H9.97714L9.92776 14.2361C9.91182 14.2298 9.89647 14.2222 9.88191 14.2131C9.82195 14.2485 9.75494 14.2821 9.71791 14.3439C9.70069 14.3722 9.69098 14.4045 9.6897 14.4376C9.68617 14.48 9.69675 14.5224 9.71439 14.5613C9.72144 14.5719 9.72673 14.5207 9.74613 14.5136C9.77963 14.4853 9.82195 14.4659 9.86428 14.4553C9.89955 14.4376 9.89425 14.4553 9.88015 14.4835C9.87662 14.4995 9.85722 14.5542 9.88367 14.526C10.0056 14.4803 10.1344 14.4558 10.2646 14.4535C10.4515 14.4341 10.6384 14.4288 10.8253 14.427L11.3544 14.4376C11.439 14.4411 11.5237 14.4588 11.6065 14.4447C11.6259 14.4394 11.6577 14.4394 11.67 14.427C11.6312 14.4058 11.5871 14.404 11.5466 14.3987H11.2098C11.1163 14.3899 11.0193 14.3881 10.9312 14.3528C10.9065 14.3439 10.8853 14.3209 10.8624 14.3457C10.8288 14.3577 10.7938 14.3654 10.7583 14.3687C10.6966 14.3722 10.6349 14.3598 10.5785 14.3368C10.619 14.2803 10.6684 14.2308 10.7142 14.1778L10.6049 14.1548C10.6702 14.1106 10.7284 14.0594 10.7918 14.0134Z" fill="#FFEC2D"/>
<path d="M10.1475 14.2206C10.1709 14.2206 10.1899 14.2016 10.1899 14.1782C10.1899 14.1547 10.1709 14.1357 10.1475 14.1357C10.1242 14.1357 10.1052 14.1547 10.1052 14.1782C10.1052 14.2016 10.1242 14.2206 10.1475 14.2206Z" fill="#FFEC2D"/>
<path d="M10.148 14.1911C10.1577 14.1911 10.1656 14.1832 10.1656 14.1734C10.1656 14.1637 10.1577 14.1558 10.148 14.1558C10.1383 14.1558 10.1304 14.1637 10.1304 14.1734C10.1304 14.1832 10.1383 14.1911 10.148 14.1911Z" fill="#FFEC2D" stroke="#FFEC2D" stroke-width="0.0577644"/>
<path d="M2.17584 1.35366C2.17584 1.35366 1.98765 1.19255 1.92296 1.2731C1.82102 1.40081 2.24053 2.03937 2.24053 2.26335C2.24053 2.63273 1.99353 2.73293 1.69164 2.78402C1.48776 2.81938 1.15647 2.77026 1.15647 2.77026C1.2192 2.68578 1.26036 2.66024 1.36426 2.65434C1.24664 2.5954 1.12902 2.46179 1.12902 2.25549C1.12902 1.93916 1.2584 1.80752 1.2584 1.44993C1.2584 1.25542 1.09766 1 1.09766 1C1.38386 1.02947 1.52501 1.29472 1.44463 1.50691C1.4667 1.51131 1.4895 1.51021 1.51103 1.5037C1.53257 1.49719 1.55218 1.48547 1.56814 1.46958C1.58774 1.52852 1.55637 1.59729 1.51129 1.65624C1.54657 1.67588 1.57402 1.66409 1.62891 1.65231C1.62499 1.71125 1.5897 1.77805 1.49952 1.83896C1.75829 1.77216 1.91511 1.95095 1.91511 2.13957C1.91511 2.283 1.8171 2.38517 1.71908 2.38517C1.68772 2.38517 1.64067 2.37141 1.61518 2.35177C1.59558 2.39106 1.60734 2.44411 1.62499 2.48341C1.55441 2.46376 1.50737 2.42053 1.54069 2.33212C1.4858 2.32819 1.44267 2.30854 1.41327 2.27318C1.44267 2.23388 1.48776 2.21423 1.54069 2.21423C1.50148 2.13171 1.54657 2.08652 1.61126 2.04919C1.61126 2.04919 1.5701 2.21423 1.67399 2.21423C1.72104 2.21423 1.76417 2.20048 1.76417 2.12975C1.76417 2.06884 1.71124 1.98435 1.58774 1.99025C1.4662 1.99614 1.36622 2.07473 1.36622 2.27121C1.36622 2.45197 1.51325 2.54235 1.70536 2.54628C1.87787 2.55414 2.00921 2.45983 2.00921 2.28103C2.00921 2.04133 1.66615 1.49905 1.66615 1.28686C1.66615 1.12771 1.8073 1.03733 1.94844 1.03733C2.12879 1.03733 2.2817 1.21809 2.2817 1.21809L2.17584 1.35169V1.35366Z" fill="#FFEC2D"/>
<path d="M2.21541 5.65761C2.21541 6.05646 1.85863 6.26079 1.5783 6.26079C1.20191 6.26079 1 6.03484 1 5.73816C1 5.57116 1.03137 5.46506 1.10782 5.30591L1.97428 3.50421C2.00567 3.42843 2.0191 3.34637 2.01349 3.26451C2.01349 3.1034 1.85666 2.97176 1.69396 2.96979C1.54497 2.9639 1.3803 3.10733 1.3803 3.2704C1.3803 3.46885 1.4842 3.55726 1.59006 3.55726C1.71944 3.55726 1.77041 3.50421 1.77041 3.41187C1.77041 3.349 1.74101 3.32149 1.69592 3.32149C1.58418 3.32149 1.6175 3.47081 1.6175 3.47081C1.60275 3.46808 1.58878 3.46211 1.57659 3.45334C1.5644 3.44457 1.5543 3.43321 1.54699 3.42007C1.53969 3.40693 1.53537 3.39234 1.53434 3.37734C1.53332 3.36234 1.53561 3.34729 1.54105 3.33328C1.49909 3.32385 1.46128 3.30111 1.43323 3.26844C1.46264 3.23897 1.49792 3.21736 1.54105 3.2095C1.51557 3.12305 1.55085 3.08179 1.62535 3.06214C1.61194 3.09167 1.6085 3.12478 1.61554 3.15645C1.73316 3.12108 1.91547 3.17609 1.91547 3.38043C1.91547 3.58477 1.77433 3.7557 1.50969 3.71444C1.57242 3.74392 1.60378 3.80482 1.61162 3.87359C1.56261 3.85394 1.50969 3.85394 1.50969 3.85394C1.54105 3.90699 1.58418 3.95218 1.58222 4.06221C1.53321 4.03863 1.48616 3.99737 1.42539 4.02291C1.52341 4.21939 1.40187 4.4866 1.09214 4.54947C1.20583 4.41587 1.26072 4.2744 1.26072 4.13098C1.26072 3.66925 1.1333 3.59263 1.1333 3.2704C1.13532 3.19567 1.15504 3.12249 1.19082 3.0569C1.22661 2.99131 1.27745 2.93519 1.33914 2.89317V2.89906C1.3012 2.89125 1.26535 2.87549 1.23392 2.8528C1.2025 2.83011 1.17623 2.80101 1.15683 2.76742C1.3752 2.7071 1.60606 2.70914 1.82334 2.77332C1.89602 2.78362 1.96546 2.81016 2.02653 2.85097C2.08761 2.89178 2.13875 2.94581 2.1762 3.00909C2.21534 3.0986 2.23554 3.19527 2.23554 3.293C2.23554 3.39073 2.21534 3.4874 2.1762 3.57691C2.0527 3.83233 1.47636 5.06228 1.29601 5.44738C1.2568 5.5299 1.23524 5.61635 1.23524 5.71066C1.23524 5.94643 1.45088 6.02895 1.57242 6.02895C1.71944 6.02895 1.87039 5.91696 1.87039 5.77746C1.87039 5.68904 1.82138 5.63403 1.75277 5.63403C1.58614 5.63403 1.59594 5.77549 1.62927 5.86587C1.52537 5.81872 1.46656 5.7362 1.48224 5.64975C1.41791 5.63892 1.35954 5.60549 1.31757 5.55544C1.35678 5.50435 1.40775 5.46506 1.48224 5.46309C1.44892 5.32753 1.54105 5.27055 1.62927 5.23911C1.60182 5.33735 1.58222 5.45327 1.75277 5.45327C1.87627 5.45327 1.97232 5.47292 2.02917 5.55544L2.0429 5.02495C2.05074 4.8658 1.83118 4.86777 1.69004 4.91689C1.74297 4.73416 1.85078 4.63396 2.10171 4.6595C2.06326 4.64469 2.03045 4.61811 2.00793 4.58355C1.98541 4.54898 1.97432 4.50819 1.97624 4.46695C1.97624 4.31763 2.09779 4.15259 2.1762 4.10347L2.21541 5.65564V5.65761Z" fill="#FFEC2D"/>
<path d="M2.21541 6.85265C2.21541 6.4538 1.85863 6.24946 1.5783 6.24946C1.20191 6.24946 1 6.47541 1 6.77209C1 6.9391 1.03137 7.04519 1.10782 7.20434L1.97428 9.00604C2.00567 9.08183 2.0191 9.16388 2.01349 9.24574C2.01349 9.40686 1.85666 9.5385 1.69396 9.54046C1.54497 9.54635 1.3803 9.40293 1.3803 9.23985C1.3803 9.04141 1.4842 8.95299 1.59006 8.95299C1.71944 8.95299 1.77041 9.00604 1.77041 9.09839C1.77041 9.16126 1.74101 9.18877 1.69592 9.18877C1.58418 9.18877 1.6175 9.03944 1.6175 9.03944C1.60275 9.04218 1.58878 9.04814 1.57659 9.05691C1.5644 9.06568 1.5543 9.07704 1.54699 9.09018C1.53969 9.10332 1.53537 9.11791 1.53434 9.13291C1.53332 9.14792 1.53561 9.16296 1.54105 9.17698C1.49909 9.18641 1.46128 9.20914 1.43323 9.24181C1.46264 9.27129 1.49792 9.2929 1.54105 9.30076C1.51557 9.38721 1.55085 9.42847 1.62535 9.44812C1.61194 9.41858 1.6085 9.38548 1.61554 9.35381C1.73316 9.38917 1.91547 9.33416 1.91547 9.12982C1.91547 8.92549 1.77433 8.75455 1.50969 8.79581C1.57242 8.76634 1.60378 8.70543 1.61162 8.63666C1.56261 8.65631 1.50969 8.65631 1.50969 8.65631C1.54105 8.60326 1.58418 8.55807 1.58222 8.44804C1.53321 8.47162 1.48616 8.51288 1.42539 8.48734C1.52341 8.29086 1.40187 8.02365 1.09214 7.96078C1.20583 8.09439 1.26072 8.23585 1.26072 8.37928C1.26072 8.841 1.1333 8.91763 1.1333 9.23985C1.13532 9.31458 1.15504 9.38776 1.19082 9.45335C1.22661 9.51894 1.27745 9.57506 1.33914 9.61709V9.61119C1.3012 9.619 1.26535 9.63477 1.23392 9.65746C1.2025 9.68014 1.17623 9.70924 1.15683 9.74283C1.3752 9.80316 1.60606 9.80112 1.82334 9.73694C1.89602 9.72663 1.96546 9.70009 2.02653 9.65929C2.08761 9.61848 2.13875 9.56444 2.1762 9.50116C2.21534 9.41165 2.23554 9.31498 2.23554 9.21725C2.23554 9.11953 2.21534 9.02286 2.1762 8.93334C2.0527 8.67792 1.47636 7.44797 1.29601 7.06288C1.2568 6.98036 1.23524 6.89391 1.23524 6.7996C1.23524 6.56382 1.45088 6.4813 1.57242 6.4813C1.71944 6.4813 1.87039 6.5933 1.87039 6.7328C1.87039 6.82121 1.82138 6.87622 1.75277 6.87622C1.58614 6.87622 1.59594 6.73476 1.62927 6.64438C1.52537 6.69153 1.46656 6.77406 1.48224 6.86051C1.41791 6.87133 1.35954 6.90476 1.31757 6.95482C1.35678 7.0059 1.40775 7.04519 1.48224 7.04716C1.44892 7.18273 1.54105 7.23971 1.62927 7.27114C1.60182 7.17291 1.58222 7.05698 1.75277 7.05698C1.87627 7.05698 1.97232 7.03734 2.02917 6.95482L2.0429 7.4853C2.05074 7.64445 1.83118 7.64249 1.69004 7.59337C1.74297 7.77609 1.85078 7.87629 2.10171 7.85075C2.06326 7.86557 2.03045 7.89214 2.00793 7.92671C1.98541 7.96127 1.97432 8.00207 1.97624 8.0433C1.97624 8.19262 2.09779 8.35767 2.1762 8.40678L2.21541 6.85461V6.85265Z" fill="#FFEC2D"/>
<path d="M2.17768 1.35366C2.17768 1.35366 2.36587 1.19255 2.43056 1.2731C2.5325 1.40081 2.11299 2.03937 2.11299 2.26335C2.11299 2.63273 2.35999 2.73293 2.66188 2.78402C2.86575 2.81938 3.19705 2.77026 3.19705 2.77026C3.13432 2.68578 3.09315 2.66024 2.98925 2.65434C3.10687 2.5954 3.22449 2.46179 3.22449 2.25549C3.22449 1.93916 3.09511 1.80752 3.09511 1.44993C3.09511 1.25542 3.25586 1 3.25586 1C2.96965 1.02947 2.82851 1.29472 2.90888 1.50691C2.88682 1.51131 2.86402 1.51021 2.84248 1.5037C2.82095 1.49719 2.80134 1.48547 2.78538 1.46958C2.76578 1.52852 2.79714 1.59729 2.84223 1.65624C2.80694 1.67588 2.7795 1.66409 2.72461 1.65231C2.72853 1.71125 2.76382 1.77805 2.85399 1.83896C2.59523 1.77216 2.4384 1.95095 2.4384 2.13957C2.4384 2.283 2.53642 2.38517 2.63443 2.38517C2.6658 2.38517 2.71285 2.37141 2.73833 2.35177C2.75794 2.39106 2.74617 2.44411 2.72853 2.48341C2.7991 2.46376 2.84615 2.42053 2.81282 2.33212C2.86771 2.32819 2.91084 2.30854 2.94025 2.27318C2.91084 2.23388 2.86575 2.21423 2.81282 2.21423C2.85203 2.13171 2.80694 2.08652 2.74225 2.04919C2.74225 2.04919 2.78342 2.21423 2.67952 2.21423C2.63247 2.21423 2.58935 2.20048 2.58935 2.12975C2.58935 2.06884 2.64228 1.98435 2.76578 1.99025C2.88732 1.99614 2.98729 2.07473 2.98729 2.27121C2.98729 2.45197 2.84027 2.54235 2.64816 2.54628C2.47565 2.55414 2.34431 2.45983 2.34431 2.28103C2.34431 2.04133 2.68736 1.49905 2.68736 1.28686C2.68736 1.12771 2.54622 1.03733 2.40508 1.03733C2.22473 1.03733 2.07182 1.21809 2.07182 1.21809L2.17768 1.35169V1.35366Z" fill="#FFEC2D"/>
<path d="M2.13811 5.65858C2.13811 6.05743 2.49489 6.26177 2.77522 6.26177C3.1516 6.26177 3.35352 6.03582 3.35352 5.73914C3.35352 5.57213 3.32215 5.46604 3.2457 5.30689L2.37923 3.50519C2.34784 3.4294 2.33442 3.34735 2.34002 3.26549C2.34002 3.10437 2.49685 2.97273 2.65956 2.97077C2.80854 2.96488 2.97321 3.1083 2.97321 3.27138C2.97321 3.46982 2.86931 3.55824 2.76346 3.55824C2.63407 3.55824 2.58311 3.50519 2.58311 3.41284C2.58311 3.34997 2.61251 3.32246 2.6576 3.32246C2.76934 3.32246 2.73601 3.47179 2.73601 3.47179C2.75077 3.46905 2.76474 3.46309 2.77692 3.45432C2.78911 3.44555 2.79922 3.43419 2.80652 3.42105C2.81383 3.40791 2.81814 3.39332 2.81917 3.37832C2.8202 3.36331 2.81791 3.34827 2.81246 3.33425C2.85442 3.32482 2.89223 3.30209 2.92028 3.26942C2.89088 3.23994 2.85559 3.21833 2.81246 3.21047C2.83795 3.12402 2.80266 3.08276 2.72817 3.06311C2.74157 3.09265 2.74501 3.12576 2.73797 3.15742C2.62035 3.12206 2.43804 3.17707 2.43804 3.38141C2.43804 3.58574 2.57918 3.75668 2.84383 3.71542C2.7811 3.74489 2.74973 3.8058 2.74189 3.87457C2.7909 3.85492 2.84383 3.85492 2.84383 3.85492C2.81246 3.90797 2.76934 3.95316 2.7713 4.06319C2.82031 4.03961 2.86735 3.99835 2.92812 4.02389C2.83011 4.22037 2.95165 4.48758 3.26138 4.55045C3.14768 4.41685 3.09279 4.27538 3.09279 4.13195C3.09279 3.67023 3.22021 3.5936 3.22021 3.27138C3.2182 3.19665 3.19848 3.12347 3.16269 3.05788C3.1269 2.99229 3.07607 2.93617 3.01438 2.89414V2.90004C3.05231 2.89223 3.08817 2.87646 3.11959 2.85378C3.15101 2.83109 3.17729 2.80199 3.19669 2.7684C2.97831 2.70807 2.74746 2.71011 2.53018 2.77429C2.4575 2.7846 2.38806 2.81114 2.32698 2.85194C2.26591 2.89275 2.21476 2.94679 2.17732 3.01007C2.13818 3.09958 2.11797 3.19625 2.11797 3.29398C2.11797 3.39171 2.13818 3.48837 2.17732 3.57789C2.30082 3.83331 2.87716 5.06326 3.05751 5.44835C3.09671 5.53087 3.11828 5.61732 3.11828 5.71163C3.11828 5.94741 2.90264 6.02993 2.7811 6.02993C2.63407 6.02993 2.48313 5.91793 2.48313 5.77844C2.48313 5.69002 2.53214 5.63501 2.60075 5.63501C2.76738 5.63501 2.75757 5.77647 2.72425 5.86685C2.82815 5.8197 2.88696 5.73718 2.87127 5.65072C2.9356 5.6399 2.99398 5.60647 3.03594 5.55642C2.99674 5.50533 2.94577 5.46604 2.87127 5.46407C2.9046 5.3285 2.81246 5.27152 2.72425 5.24009C2.75169 5.33833 2.7713 5.45425 2.60075 5.45425C2.47725 5.45425 2.38119 5.47389 2.32434 5.55642L2.31062 5.02593C2.30278 4.86678 2.52234 4.86874 2.66348 4.91786C2.61055 4.73514 2.50273 4.63494 2.25181 4.66048C2.29025 4.64566 2.32306 4.61909 2.34558 4.58452C2.3681 4.54996 2.37919 4.50917 2.37727 4.46793C2.37727 4.31861 2.25573 4.15357 2.17732 4.10445L2.13811 5.65662V5.65858Z" fill="#FFEC2D"/>
<path d="M2.13811 6.85265C2.13811 6.4538 2.49489 6.24946 2.77522 6.24946C3.1516 6.24946 3.35352 6.47541 3.35352 6.77209C3.35352 6.9391 3.32215 7.04519 3.2457 7.20434L2.37923 9.00604C2.34784 9.08183 2.33442 9.16388 2.34002 9.24574C2.34002 9.40686 2.49685 9.5385 2.65956 9.54046C2.80854 9.54635 2.97321 9.40293 2.97321 9.23985C2.97321 9.04141 2.86931 8.95299 2.76346 8.95299C2.63407 8.95299 2.58311 9.00604 2.58311 9.09839C2.58311 9.16126 2.61251 9.18877 2.6576 9.18877C2.76934 9.18877 2.73601 9.03944 2.73601 9.03944C2.75077 9.04218 2.76474 9.04814 2.77692 9.05691C2.78911 9.06568 2.79922 9.07704 2.80652 9.09018C2.81383 9.10332 2.81814 9.11791 2.81917 9.13291C2.8202 9.14792 2.81791 9.16296 2.81246 9.17698C2.85442 9.18641 2.89223 9.20914 2.92028 9.24181C2.89088 9.27129 2.85559 9.2929 2.81246 9.30076C2.83795 9.38721 2.80266 9.42847 2.72817 9.44812C2.74157 9.41858 2.74501 9.38548 2.73797 9.35381C2.62035 9.38917 2.43804 9.33416 2.43804 9.12982C2.43804 8.92549 2.57918 8.75455 2.84383 8.79581C2.7811 8.76634 2.74973 8.70543 2.74189 8.63666C2.7909 8.65631 2.84383 8.65631 2.84383 8.65631C2.81246 8.60326 2.76934 8.55807 2.7713 8.44804C2.82031 8.47162 2.86735 8.51288 2.92812 8.48734C2.83011 8.29086 2.95165 8.02365 3.26138 7.96078C3.14768 8.09439 3.09279 8.23585 3.09279 8.37928C3.09279 8.841 3.22021 8.91763 3.22021 9.23985C3.2182 9.31458 3.19848 9.38776 3.16269 9.45335C3.1269 9.51894 3.07607 9.57506 3.01438 9.61709V9.61119C3.05231 9.619 3.08817 9.63477 3.11959 9.65746C3.15101 9.68014 3.17729 9.70924 3.19669 9.74283C2.97831 9.80316 2.74746 9.80112 2.53018 9.73694C2.4575 9.72663 2.38806 9.70009 2.32698 9.65929C2.26591 9.61848 2.21476 9.56444 2.17732 9.50116C2.13818 9.41165 2.11797 9.31498 2.11797 9.21725C2.11797 9.11953 2.13818 9.02286 2.17732 8.93334C2.30082 8.67792 2.87716 7.44797 3.05751 7.06288C3.09671 6.98036 3.11828 6.89391 3.11828 6.7996C3.11828 6.56382 2.90264 6.4813 2.7811 6.4813C2.63407 6.4813 2.48313 6.5933 2.48313 6.7328C2.48313 6.82121 2.53214 6.87622 2.60075 6.87622C2.76738 6.87622 2.75757 6.73476 2.72425 6.64438C2.82815 6.69153 2.88696 6.77406 2.87127 6.86051C2.9356 6.87133 2.99398 6.90476 3.03594 6.95482C2.99674 7.0059 2.94577 7.04519 2.87127 7.04716C2.9046 7.18273 2.81246 7.23971 2.72425 7.27114C2.75169 7.17291 2.7713 7.05698 2.60075 7.05698C2.47725 7.05698 2.38119 7.03734 2.32434 6.95482L2.31062 7.4853C2.30278 7.64445 2.52234 7.64249 2.66348 7.59337C2.61055 7.77609 2.50273 7.87629 2.25181 7.85075C2.29025 7.86557 2.32306 7.89214 2.34558 7.92671C2.3681 7.96127 2.37919 8.00207 2.37727 8.0433C2.37727 8.19262 2.25573 8.35767 2.17732 8.40678L2.13811 6.85461V6.85265Z" fill="#FFEC2D"/>
<path d="M2.17584 18.1332C2.17584 18.1332 1.98765 18.2943 1.92296 18.2137C1.82102 18.086 2.24053 17.4474 2.24053 17.2235C2.24053 16.8541 1.99353 16.7539 1.69164 16.7028C1.48776 16.6674 1.15647 16.7166 1.15647 16.7166C1.2192 16.801 1.26036 16.8266 1.36426 16.8325C1.24664 16.8914 1.12902 17.025 1.12902 17.2313C1.12902 17.5477 1.2584 17.6793 1.2584 18.0369C1.2584 18.2314 1.09766 18.4868 1.09766 18.4868C1.38386 18.4573 1.52501 18.1921 1.44463 17.9799C1.4667 17.9755 1.4895 17.9766 1.51103 17.9831C1.53257 17.9896 1.55218 18.0013 1.56814 18.0172C1.58774 17.9583 1.55637 17.8895 1.51129 17.8306C1.54657 17.8109 1.57402 17.8227 1.62891 17.8345C1.62499 17.7756 1.5897 17.7088 1.49952 17.6479C1.75829 17.7147 1.91511 17.5359 1.91511 17.3472C1.91511 17.2038 1.8171 17.1016 1.71908 17.1016C1.68772 17.1016 1.64067 17.1154 1.61518 17.1351C1.59558 17.0958 1.60734 17.0427 1.62499 17.0034C1.55441 17.0231 1.50737 17.0663 1.54069 17.1547C1.4858 17.1586 1.44267 17.1783 1.41327 17.2136C1.44267 17.2529 1.48776 17.2726 1.54069 17.2726C1.50148 17.3551 1.54657 17.4003 1.61126 17.4376C1.61126 17.4376 1.5701 17.2726 1.67399 17.2726C1.72104 17.2726 1.76417 17.2863 1.76417 17.3571C1.76417 17.418 1.71124 17.5025 1.58774 17.4966C1.4662 17.4907 1.36622 17.4121 1.36622 17.2156C1.36622 17.0348 1.51325 16.9445 1.70536 16.9405C1.87787 16.9327 2.00921 17.027 2.00921 17.2058C2.00921 17.4455 1.66615 17.9878 1.66615 18.2C1.66615 18.3591 1.8073 18.4495 1.94844 18.4495C2.12879 18.4495 2.2817 18.2687 2.2817 18.2687L2.17584 18.1351V18.1332Z" fill="#FFEC2D"/>
<path d="M2.21541 13.8277C2.21541 13.4289 1.85863 13.2246 1.5783 13.2246C1.20191 13.2246 1 13.4505 1 13.7472C1 13.9142 1.03137 14.0203 1.10782 14.1794L1.97428 15.9811C2.00567 16.0569 2.0191 16.139 2.01349 16.2208C2.01349 16.382 1.85666 16.5136 1.69396 16.5156C1.54497 16.5215 1.3803 16.378 1.3803 16.2149C1.3803 16.0165 1.4842 15.9281 1.59006 15.9281C1.71944 15.9281 1.77041 15.9811 1.77041 16.0735C1.77041 16.1364 1.74101 16.1639 1.69592 16.1639C1.58418 16.1639 1.6175 16.0145 1.6175 16.0145C1.60275 16.0173 1.58878 16.0232 1.57659 16.032C1.5644 16.0408 1.5543 16.0521 1.54699 16.0653C1.53969 16.0784 1.53537 16.093 1.53434 16.108C1.53332 16.123 1.53561 16.1381 1.54105 16.1521C1.49909 16.1615 1.46128 16.1842 1.43323 16.2169C1.46264 16.2464 1.49792 16.268 1.54105 16.2759C1.51557 16.3623 1.55085 16.4036 1.62535 16.4232C1.61194 16.3937 1.6085 16.3606 1.61554 16.3289C1.73316 16.3643 1.91547 16.3093 1.91547 16.1049C1.91547 15.9006 1.77433 15.7296 1.50969 15.7709C1.57242 15.7414 1.60378 15.6805 1.61162 15.6118C1.56261 15.6314 1.50969 15.6314 1.50969 15.6314C1.54105 15.5784 1.58418 15.5332 1.58222 15.4231C1.53321 15.4467 1.48616 15.488 1.42539 15.4624C1.52341 15.266 1.40187 14.9988 1.09214 14.9359C1.20583 15.0695 1.26072 15.2109 1.26072 15.3544C1.26072 15.8161 1.1333 15.8927 1.1333 16.2149C1.13532 16.2897 1.15504 16.3629 1.19082 16.4284C1.22661 16.494 1.27745 16.5502 1.33914 16.5922V16.5863C1.3012 16.5941 1.26535 16.6099 1.23392 16.6326C1.2025 16.6552 1.17623 16.6843 1.15683 16.7179C1.3752 16.7783 1.60606 16.7762 1.82334 16.712C1.89602 16.7017 1.96546 16.6752 2.02653 16.6344C2.08761 16.5936 2.13875 16.5395 2.1762 16.4763C2.21534 16.3868 2.23554 16.2901 2.23554 16.1924C2.23554 16.0946 2.21534 15.998 2.1762 15.9084C2.0527 15.653 1.47636 14.4231 1.29601 14.038C1.2568 13.9555 1.23524 13.869 1.23524 13.7747C1.23524 13.5389 1.45088 13.4564 1.57242 13.4564C1.71944 13.4564 1.87039 13.5684 1.87039 13.7079C1.87039 13.7963 1.82138 13.8513 1.75277 13.8513C1.58614 13.8513 1.59594 13.7099 1.62927 13.6195C1.52537 13.6666 1.46656 13.7492 1.48224 13.8356C1.41791 13.8464 1.35954 13.8799 1.31757 13.9299C1.35678 13.981 1.40775 14.0203 1.48224 14.0223C1.44892 14.1578 1.54105 14.2148 1.62927 14.2462C1.60182 14.148 1.58222 14.0321 1.75277 14.0321C1.87627 14.0321 1.97232 14.0124 2.02917 13.9299L2.0429 14.4604C2.05074 14.6195 1.83118 14.6176 1.69004 14.5685C1.74297 14.7512 1.85078 14.8514 2.10171 14.8259C2.06326 14.8407 2.03045 14.8672 2.00793 14.9018C1.98541 14.9364 1.97432 14.9772 1.97624 15.0184C1.97624 15.1677 2.09779 15.3328 2.1762 15.3819L2.21541 13.8297V13.8277Z" fill="#FFEC2D"/>
<path d="M2.21541 12.6342C2.21541 13.033 1.85863 13.2374 1.5783 13.2374C1.20191 13.2374 1 13.0114 1 12.7147C1 12.5477 1.03137 12.4416 1.10782 12.2825L1.97428 10.4808C2.00567 10.405 2.0191 10.3229 2.01349 10.2411C2.01349 10.08 1.85666 9.94832 1.69396 9.94636C1.54497 9.94046 1.3803 10.0839 1.3803 10.247C1.3803 10.4454 1.4842 10.5338 1.59006 10.5338C1.71944 10.5338 1.77041 10.4808 1.77041 10.3884C1.77041 10.3256 1.74101 10.2981 1.69592 10.2981C1.58418 10.2981 1.6175 10.4474 1.6175 10.4474C1.60275 10.4446 1.58878 10.4387 1.57659 10.4299C1.5644 10.4211 1.5543 10.4098 1.54699 10.3966C1.53969 10.3835 1.53537 10.3689 1.53434 10.3539C1.53332 10.3389 1.53561 10.3239 1.54105 10.3098C1.49909 10.3004 1.46128 10.2777 1.43323 10.245C1.46264 10.2155 1.49792 10.1939 1.54105 10.1861C1.51557 10.0996 1.55085 10.0583 1.62535 10.0387C1.61194 10.0682 1.6085 10.1013 1.61554 10.133C1.73316 10.0976 1.91547 10.1527 1.91547 10.357C1.91547 10.5613 1.77433 10.7323 1.50969 10.691C1.57242 10.7205 1.60378 10.7814 1.61162 10.8502C1.56261 10.8305 1.50969 10.8305 1.50969 10.8305C1.54105 10.8836 1.58418 10.9287 1.58222 11.0388C1.53321 11.0152 1.48616 10.9739 1.42539 10.9995C1.52341 11.196 1.40187 11.4632 1.09214 11.526C1.20583 11.3924 1.26072 11.251 1.26072 11.1075C1.26072 10.6458 1.1333 10.5692 1.1333 10.247C1.13532 10.1722 1.15504 10.0991 1.19082 10.0335C1.22661 9.96788 1.27745 9.91175 1.33914 9.86973V9.87562C1.3012 9.86782 1.26535 9.85205 1.23392 9.82936C1.2025 9.80667 1.17623 9.77758 1.15683 9.74398C1.3752 9.68366 1.60606 9.6857 1.82334 9.74988C1.89602 9.76018 1.96546 9.78672 2.02653 9.82753C2.08761 9.86834 2.13875 9.92238 2.1762 9.98565C2.21534 10.0752 2.23554 10.1718 2.23554 10.2696C2.23554 10.3673 2.21534 10.464 2.1762 10.5535C2.0527 10.8089 1.47636 12.0388 1.29601 12.4239C1.2568 12.5065 1.23524 12.5929 1.23524 12.6872C1.23524 12.923 1.45088 13.0055 1.57242 13.0055C1.71944 13.0055 1.87039 12.8935 1.87039 12.754C1.87039 12.6656 1.82138 12.6106 1.75277 12.6106C1.58614 12.6106 1.59594 12.7521 1.62927 12.8424C1.52537 12.7953 1.46656 12.7128 1.48224 12.6263C1.41791 12.6155 1.35954 12.5821 1.31757 12.532C1.35678 12.4809 1.40775 12.4416 1.48224 12.4397C1.44892 12.3041 1.54105 12.2471 1.62927 12.2157C1.60182 12.3139 1.58222 12.4298 1.75277 12.4298C1.87627 12.4298 1.97232 12.4495 2.02917 12.532L2.0429 12.0015C2.05074 11.8424 1.83118 11.8443 1.69004 11.8934C1.74297 11.7107 1.85078 11.6105 2.10171 11.6361C2.06326 11.6212 2.03045 11.5947 2.00793 11.5601C1.98541 11.5255 1.97432 11.4848 1.97624 11.4435C1.97624 11.2942 2.09779 11.1292 2.1762 11.08L2.21541 12.6322V12.6342Z" fill="#FFEC2D"/>
<path d="M2.17768 18.1332C2.17768 18.1332 2.36587 18.2943 2.43056 18.2137C2.5325 18.086 2.11299 17.4474 2.11299 17.2235C2.11299 16.8541 2.35999 16.7539 2.66188 16.7028C2.86575 16.6674 3.19705 16.7166 3.19705 16.7166C3.13432 16.801 3.09315 16.8266 2.98925 16.8325C3.10687 16.8914 3.22449 17.025 3.22449 17.2313C3.22449 17.5477 3.09511 17.6793 3.09511 18.0369C3.09511 18.2314 3.25586 18.4868 3.25586 18.4868C2.96965 18.4573 2.82851 18.1921 2.90888 17.9799C2.88682 17.9755 2.86402 17.9766 2.84248 17.9831C2.82095 17.9896 2.80134 18.0013 2.78538 18.0172C2.76578 17.9583 2.79714 17.8895 2.84223 17.8306C2.80694 17.8109 2.7795 17.8227 2.72461 17.8345C2.72853 17.7756 2.76382 17.7088 2.85399 17.6479C2.59523 17.7147 2.4384 17.5359 2.4384 17.3472C2.4384 17.2038 2.53642 17.1016 2.63443 17.1016C2.6658 17.1016 2.71285 17.1154 2.73833 17.1351C2.75794 17.0958 2.74617 17.0427 2.72853 17.0034C2.7991 17.0231 2.84615 17.0663 2.81282 17.1547C2.86771 17.1586 2.91084 17.1783 2.94025 17.2136C2.91084 17.2529 2.86575 17.2726 2.81282 17.2726C2.85203 17.3551 2.80694 17.4003 2.74225 17.4376C2.74225 17.4376 2.78342 17.2726 2.67952 17.2726C2.63247 17.2726 2.58935 17.2863 2.58935 17.3571C2.58935 17.418 2.64228 17.5025 2.76578 17.4966C2.88732 17.4907 2.98729 17.4121 2.98729 17.2156C2.98729 17.0348 2.84027 16.9445 2.64816 16.9405C2.47565 16.9327 2.34431 17.027 2.34431 17.2058C2.34431 17.4455 2.68736 17.9878 2.68736 18.2C2.68736 18.3591 2.54622 18.4495 2.40508 18.4495C2.22473 18.4495 2.07182 18.2687 2.07182 18.2687L2.17768 18.1351V18.1332Z" fill="#FFEC2D"/>
<path d="M2.13811 13.8277C2.13811 13.4289 2.49489 13.2246 2.77522 13.2246C3.1516 13.2246 3.35352 13.4505 3.35352 13.7472C3.35352 13.9142 3.32215 14.0203 3.2457 14.1794L2.37923 15.9811C2.34784 16.0569 2.33442 16.139 2.34002 16.2208C2.34002 16.382 2.49685 16.5136 2.65956 16.5156C2.80854 16.5215 2.97321 16.378 2.97321 16.2149C2.97321 16.0165 2.86931 15.9281 2.76346 15.9281C2.63407 15.9281 2.58311 15.9811 2.58311 16.0735C2.58311 16.1364 2.61251 16.1639 2.6576 16.1639C2.76934 16.1639 2.73601 16.0145 2.73601 16.0145C2.75077 16.0173 2.76474 16.0232 2.77692 16.032C2.78911 16.0408 2.79922 16.0521 2.80652 16.0653C2.81383 16.0784 2.81814 16.093 2.81917 16.108C2.8202 16.123 2.81791 16.1381 2.81246 16.1521C2.85442 16.1615 2.89223 16.1842 2.92028 16.2169C2.89088 16.2464 2.85559 16.268 2.81246 16.2759C2.83795 16.3623 2.80266 16.4036 2.72817 16.4232C2.74157 16.3937 2.74501 16.3606 2.73797 16.3289C2.62035 16.3643 2.43804 16.3093 2.43804 16.1049C2.43804 15.9006 2.57918 15.7296 2.84383 15.7709C2.7811 15.7414 2.74973 15.6805 2.74189 15.6118C2.7909 15.6314 2.84383 15.6314 2.84383 15.6314C2.81246 15.5784 2.76934 15.5332 2.7713 15.4231C2.82031 15.4467 2.86735 15.488 2.92812 15.4624C2.83011 15.266 2.95165 14.9988 3.26138 14.9359C3.14768 15.0695 3.09279 15.2109 3.09279 15.3544C3.09279 15.8161 3.22021 15.8927 3.22021 16.2149C3.2182 16.2897 3.19848 16.3629 3.16269 16.4284C3.1269 16.494 3.07607 16.5502 3.01438 16.5922V16.5863C3.05231 16.5941 3.08817 16.6099 3.11959 16.6326C3.15101 16.6552 3.17729 16.6843 3.19669 16.7179C2.97831 16.7783 2.74746 16.7762 2.53018 16.712C2.4575 16.7017 2.38806 16.6752 2.32698 16.6344C2.26591 16.5936 2.21476 16.5395 2.17732 16.4763C2.13818 16.3868 2.11797 16.2901 2.11797 16.1924C2.11797 16.0946 2.13818 15.998 2.17732 15.9084C2.30082 15.653 2.87716 14.4231 3.05751 14.038C3.09671 13.9555 3.11828 13.869 3.11828 13.7747C3.11828 13.5389 2.90264 13.4564 2.7811 13.4564C2.63407 13.4564 2.48313 13.5684 2.48313 13.7079C2.48313 13.7963 2.53214 13.8513 2.60075 13.8513C2.76738 13.8513 2.75757 13.7099 2.72425 13.6195C2.82815 13.6666 2.88696 13.7492 2.87127 13.8356C2.9356 13.8464 2.99398 13.8799 3.03594 13.9299C2.99674 13.981 2.94577 14.0203 2.87127 14.0223C2.9046 14.1578 2.81246 14.2148 2.72425 14.2462C2.75169 14.148 2.7713 14.0321 2.60075 14.0321C2.47725 14.0321 2.38119 14.0124 2.32434 13.9299L2.31062 14.4604C2.30278 14.6195 2.52234 14.6176 2.66348 14.5685C2.61055 14.7512 2.50273 14.8514 2.25181 14.8259C2.29025 14.8407 2.32306 14.8672 2.34558 14.9018C2.3681 14.9364 2.37919 14.9772 2.37727 15.0184C2.37727 15.1677 2.25573 15.3328 2.17732 15.3819L2.13811 13.8297V13.8277Z" fill="#FFEC2D"/>
<path d="M2.13811 12.6342C2.13811 13.033 2.49489 13.2374 2.77522 13.2374C3.1516 13.2374 3.35352 13.0114 3.35352 12.7147C3.35352 12.5477 3.32215 12.4416 3.2457 12.2825L2.37923 10.4808C2.34784 10.405 2.33442 10.3229 2.34002 10.2411C2.34002 10.08 2.49685 9.94832 2.65956 9.94636C2.80854 9.94046 2.97321 10.0839 2.97321 10.247C2.97321 10.4454 2.86931 10.5338 2.76346 10.5338C2.63407 10.5338 2.58311 10.4808 2.58311 10.3884C2.58311 10.3256 2.61251 10.2981 2.6576 10.2981C2.76934 10.2981 2.73601 10.4474 2.73601 10.4474C2.75077 10.4446 2.76474 10.4387 2.77692 10.4299C2.78911 10.4211 2.79922 10.4098 2.80652 10.3966C2.81383 10.3835 2.81814 10.3689 2.81917 10.3539C2.8202 10.3389 2.81791 10.3239 2.81246 10.3098C2.85442 10.3004 2.89223 10.2777 2.92028 10.245C2.89088 10.2155 2.85559 10.1939 2.81246 10.1861C2.83795 10.0996 2.80266 10.0583 2.72817 10.0387C2.74157 10.0682 2.74501 10.1013 2.73797 10.133C2.62035 10.0976 2.43804 10.1527 2.43804 10.357C2.43804 10.5613 2.57918 10.7323 2.84383 10.691C2.7811 10.7205 2.74973 10.7814 2.74189 10.8502C2.7909 10.8305 2.84383 10.8305 2.84383 10.8305C2.81246 10.8836 2.76934 10.9287 2.7713 11.0388C2.82031 11.0152 2.86735 10.9739 2.92812 10.9995C2.83011 11.196 2.95165 11.4632 3.26138 11.526C3.14768 11.3924 3.09279 11.251 3.09279 11.1075C3.09279 10.6458 3.22021 10.5692 3.22021 10.247C3.2182 10.1722 3.19848 10.0991 3.16269 10.0335C3.1269 9.96788 3.07607 9.91175 3.01438 9.86973V9.87562C3.05231 9.86782 3.08817 9.85205 3.11959 9.82936C3.15101 9.80667 3.17729 9.77758 3.19669 9.74398C2.97831 9.68366 2.74746 9.6857 2.53018 9.74988C2.4575 9.76018 2.38806 9.78672 2.32698 9.82753C2.26591 9.86834 2.21476 9.92238 2.17732 9.98565C2.13818 10.0752 2.11797 10.1718 2.11797 10.2696C2.11797 10.3673 2.13818 10.464 2.17732 10.5535C2.30082 10.8089 2.87716 12.0388 3.05751 12.4239C3.09671 12.5065 3.11828 12.5929 3.11828 12.6872C3.11828 12.923 2.90264 13.0055 2.7811 13.0055C2.63407 13.0055 2.48313 12.8935 2.48313 12.754C2.48313 12.6656 2.53214 12.6106 2.60075 12.6106C2.76738 12.6106 2.75757 12.7521 2.72425 12.8424C2.82815 12.7953 2.88696 12.7128 2.87127 12.6263C2.9356 12.6155 2.99398 12.5821 3.03594 12.532C2.99674 12.4809 2.94577 12.4416 2.87127 12.4397C2.9046 12.3041 2.81246 12.2471 2.72425 12.2157C2.75169 12.3139 2.7713 12.4298 2.60075 12.4298C2.47725 12.4298 2.38119 12.4495 2.32434 12.532L2.31062 12.0015C2.30278 11.8424 2.52234 11.8443 2.66348 11.8934C2.61055 11.7107 2.50273 11.6105 2.25181 11.6361C2.29025 11.6212 2.32306 11.5947 2.34558 11.5601C2.3681 11.5255 2.37919 11.4848 2.37727 11.4435C2.37727 11.2942 2.25573 11.1292 2.17732 11.08L2.13811 12.6322V12.6342Z" fill="#FFEC2D"/>
</svg>
